<?xml version="1.0" encoding="UTF-8"?>
<!DOCTYPE svg PUBLIC "-//W3C//DTD SVG 1.1//EN" "http://www.w3.org/Graphics/SVG/1.1/DTD/svg11.dtd">
<!-- Creator: CorelDRAW X7 -->
<svg xmlns="http://www.w3.org/2000/svg" xml:space="preserve" width="230.341mm" height="141.111mm" version="1.1" style="shape-rendering:geometricPrecision; text-rendering:geometricPrecision; image-rendering:optimizeQuality; fill-rule:evenodd; clip-rule:evenodd"
viewBox="0 0 23034 14111"
 xmlns:xlink="http://www.w3.org/1999/xlink">
 <defs>
  <style type="text/css">
   <![CDATA[
    .fil7 {fill:none;fill-rule:nonzero}
    .fil5 {fill:black}
    .fil1 {fill:#00CC66}
    .fil0 {fill:#66FF66}
    .fil3 {fill:white}
    .fil4 {fill:black;fill-rule:nonzero}
    .fil6 {fill:red;fill-rule:nonzero}
    .fil2 {fill:white;fill-rule:nonzero}
   ]]>
  </style>
 </defs>
 <g id="Слой_x0020_1">
  <metadata id="CorelCorpID_0Corel-Layer"/>
  <g id="_607928432">
  </g>
  <g id="_607942704">
   <path class="fil0" d="M1767 103l-1252 0c-271,76 -471,326 -471,620l0 12665c0,354 290,644 645,644l1078 0 0 -13929z"/>
   <polygon class="fil1" points="1769,79 2699,79 2699,14032 1769,14032 "/>
   <polygon class="fil1" points="3626,79 4556,79 4556,14032 3626,14032 "/>
   <polygon class="fil1" points="5483,79 6413,79 6413,14032 5483,14032 "/>
   <polygon class="fil1" points="7340,79 8270,79 8270,14032 7340,14032 "/>
   <polygon class="fil1" points="9196,79 10127,79 10127,14032 9196,14032 "/>
   <polygon class="fil1" points="11053,79 11984,79 11984,14032 11053,14032 "/>
   <polygon class="fil1" points="12910,79 13841,79 13841,14032 12910,14032 "/>
   <polygon class="fil1" points="14767,79 15697,79 15697,14032 14767,14032 "/>
   <polygon class="fil1" points="16624,79 17554,79 17554,14032 16624,14032 "/>
   <polygon class="fil1" points="18481,79 19411,79 19411,14032 18481,14032 "/>
   <polygon class="fil1" points="20338,79 21268,79 21268,14032 20338,14032 "/>
   <polygon class="fil0" points="2697,79 3626,79 3626,14003 2697,14003 "/>
   <polygon class="fil0" points="4554,79 5483,79 5483,14003 4554,14003 "/>
   <polygon class="fil0" points="6411,79 7340,79 7340,14003 6411,14003 "/>
   <polygon class="fil0" points="8268,79 9196,79 9196,14003 8268,14003 "/>
   <polygon class="fil0" points="10125,79 11053,79 11053,14003 10125,14003 "/>
   <polygon class="fil0" points="11982,79 12910,79 12910,14003 11982,14003 "/>
   <polygon class="fil0" points="13839,79 14767,79 14767,14003 13839,14003 "/>
   <polygon class="fil0" points="15696,79 16624,79 16624,14003 15696,14003 "/>
   <polygon class="fil0" points="17552,79 18481,79 18481,14003 17552,14003 "/>
   <polygon class="fil0" points="19409,79 20338,79 20338,14003 19409,14003 "/>
   <path class="fil0" d="M22344 79l-1077 0 0 13929 1251 0c270,-76 470,-326 470,-620l0 -12665c0,-354 -290,-644 -644,-644z"/>
   <path class="fil2" d="M22308 2770l-2767 0 0 8567 2767 0 0 -8567zm-2824 -113l2881 0 57 0 0 57 0 8680 0 57 -57 0 -2881 0 -57 0 0 -57 0 -8680 0 -57 57 0z"/>
   <path class="fil3" d="M11480 7685c343,0 621,-278 621,-621 0,-343 -278,-621 -621,-621 -343,0 -621,278 -621,621 0,343 278,621 621,621z"/>
   <path class="fil4" d="M11480 7628c156,0 297,-63 399,-165 102,-102 165,-243 165,-399 0,-156 -63,-297 -165,-399 -102,-102 -243,-165 -399,-165 -156,0 -297,63 -399,165 -102,102 -165,243 -165,399 0,156 63,297 165,399 102,102 243,165 399,165zm479 -85c-122,123 -292,199 -479,199 -187,0 -356,-76 -479,-199 -123,-122 -198,-292 -198,-479 0,-187 75,-356 198,-479 123,-123 292,-199 479,-199 187,0 357,76 479,199 123,123 199,292 199,479 0,187 -76,357 -199,479z"/>
   <path class="fil2" d="M11480 9328c625,0 1191,-253 1601,-663 410,-410 663,-976 663,-1601 0,-625 -253,-1191 -663,-1601 -410,-409 -976,-663 -1601,-663 -625,0 -1191,254 -1601,663 -409,410 -663,976 -663,1601 0,625 254,1191 663,1601 410,410 976,663 1601,663zm1681 -583c-430,431 -1024,697 -1681,697 -656,0 -1251,-266 -1681,-697 -430,-430 -696,-1024 -696,-1681 0,-657 266,-1251 696,-1681 430,-430 1025,-697 1681,-697 657,0 1251,267 1681,697 431,430 697,1024 697,1681 0,657 -266,1251 -697,1681z"/>
   <polygon class="fil5" points="11478,6729 11651,6855 11824,6980 11757,7184 11691,7387 11478,7387 11264,7387 11198,7184 11132,6980 11305,6855 "/>
   <polygon class="fil5" points="2070,5045 2375,5045 2375,6587 2070,6587 "/>
   <polygon class="fil5" points="20974,8113 20668,8113 20668,9656 20974,9656 "/>
   <path class="fil4" d="M7212 813l0 -475 179 0c31,0 55,2 72,5 23,3 43,11 59,22 16,11 28,26 38,45 10,20 14,42 14,65 0,40 -13,74 -38,102 -26,28 -72,42 -140,42l-121 0 0 194 -63 0zm63 -250l122 0c41,0 70,-7 87,-22 17,-15 25,-37 25,-64 0,-20 -5,-37 -15,-51 -10,-14 -23,-24 -39,-28 -11,-3 -31,-4 -59,-4l-121 0 0 169zm376 250l0 -475 63 0 0 419 233 0 0 56 -296 0zm319 0l182 -475 69 0 194 475 -72 0 -55 -144 -200 0 -51 144 -67 0zm137 -195l162 0 -50 -132c-15,-40 -26,-73 -34,-99 -7,31 -15,61 -26,91l-52 140zm442 195l0 -201 -183 -274 76 0 93 144c18,26 34,53 49,80 14,-25 32,-53 52,-84l92 -140 73 0 -189 274 0 201 -63 0zm310 0l0 -475 342 0 0 56 -280 0 0 146 262 0 0 55 -262 0 0 162 291 0 0 56 -353 0zm442 0l0 -475 210 0c42,0 74,4 96,13 22,8 40,23 53,45 13,22 20,45 20,71 0,34 -11,63 -33,86 -22,23 -55,37 -101,44 17,7 29,15 38,23 18,17 36,38 52,63l82 130 -79 0 -62 -99c-18,-29 -34,-51 -45,-66 -12,-15 -23,-25 -32,-31 -10,-6 -19,-11 -29,-13 -7,-1 -19,-2 -35,-2l-73 0 0 211 -62 0zm62 -265l135 0c29,0 51,-3 67,-9 16,-6 29,-16 37,-29 8,-13 13,-27 13,-42 0,-23 -8,-41 -25,-56 -16,-14 -42,-22 -77,-22l-150 0 0 158zm794 265l-58 0 0 -372c-14,14 -32,27 -55,40 -23,14 -43,24 -62,31l0 -57c33,-15 61,-34 86,-55 24,-22 42,-43 52,-64l37 0 0 477z"/>
   <path class="fil4" d="M12805 823l0 -475 179 0c32,0 56,2 72,5 24,4 43,11 59,22 16,11 29,26 38,46 10,19 15,41 15,64 0,40 -13,75 -39,102 -26,28 -72,42 -139,42l-122 0 0 194 -63 0zm63 -249l123 0c40,0 69,-8 86,-23 17,-15 26,-36 26,-64 0,-20 -5,-37 -15,-51 -11,-14 -24,-23 -40,-28 -11,-3 -30,-4 -59,-4l-121 0 0 170zm376 249l0 -475 63 0 0 419 234 0 0 56 -297 0zm320 0l182 -475 69 0 193 475 -72 0 -55 -144 -199 0 -52 144 -66 0zm136 -195l162 0 -50 -132c-15,-40 -26,-73 -34,-99 -6,31 -15,62 -26,92l-52 139zm442 195l0 -201 -183 -274 76 0 94 144c17,27 33,53 48,80 15,-25 32,-53 53,-84l91 -140 74 0 -190 274 0 201 -63 0zm310 0l0 -475 342 0 0 56 -279 0 0 146 261 0 0 55 -261 0 0 162 291 0 0 56 -354 0zm442 0l0 -475 210 0c42,0 74,5 96,13 22,9 40,24 53,45 13,22 20,46 20,72 0,33 -11,62 -33,85 -22,23 -55,37 -101,44 17,8 30,16 38,23 18,17 36,38 52,64l82 129 -78 0 -63 -99c-18,-29 -33,-50 -45,-65 -12,-16 -23,-26 -32,-32 -9,-6 -19,-10 -29,-13 -7,-1 -18,-2 -35,-2l-72 0 0 211 -63 0zm63 -265l134 0c29,0 51,-3 68,-9 16,-6 28,-16 36,-29 9,-13 13,-27 13,-42 0,-23 -8,-41 -24,-56 -17,-14 -42,-21 -77,-21l-150 0 0 157zm880 209l0 56 -314 0c0,-14 2,-28 7,-41 8,-21 21,-42 39,-63 18,-20 43,-44 76,-71 51,-43 86,-76 105,-101 18,-25 27,-48 27,-70 0,-23 -8,-43 -25,-59 -16,-15 -38,-23 -65,-23 -28,0 -50,8 -67,25 -17,17 -26,40 -26,69l-59 -5c4,-45 19,-79 46,-103 27,-23 63,-35 108,-35 45,0 81,13 108,38 26,26 40,57 40,94 0,19 -4,38 -12,56 -8,19 -21,38 -39,58 -18,21 -48,48 -89,84 -35,29 -58,49 -68,60 -10,10 -18,21 -25,31l233 0z"/>
   <path class="fil2" d="M675 803l21690 0 57 0 0 57 0 12395 0 57 -57 0 -21690 0 -56 0 0 -57 0 -12395 0 -57 56 0zm21633 114l-21576 0 0 12281 21576 0 0 -12281z"/>
   <path class="fil5" d="M11480 79c16,14 26,34 26,57l0 1031c0,41 -34,75 -76,75l-1054 0c-41,0 -76,-34 -76,-75l0 -1031c0,-23 10,-43 26,-57l1154 0z"/>
   <path class="fil4" d="M11482 79c1,1 2,2 3,3 14,14 22,33 22,54l0 1031c0,21 -8,40 -22,54l0 0c-14,14 -34,23 -55,23l-1054 0c-21,0 -40,-9 -54,-23l0 0c-14,-14 -23,-33 -23,-54l0 -1031c0,-21 9,-40 23,-54 1,-1 2,-2 3,-3l3 0c-2,1 -3,3 -5,4 -13,14 -21,32 -21,53l0 1031c0,20 8,39 21,52l0 0c14,14 33,22 53,22l1054 0c21,0 40,-8 53,-22l0 0c14,-13 22,-32 22,-52l0 -1031c0,-21 -8,-39 -22,-53 -1,-1 -3,-3 -4,-4l3 0z"/>
   <path class="fil2" d="M10734 570c0,-56 5,-101 17,-135 11,-34 29,-61 51,-79 23,-19 52,-28 86,-28 25,0 48,5 67,16 19,10 35,25 48,44 12,19 22,43 29,70 7,28 10,66 10,112 0,56 -5,101 -17,135 -11,35 -28,61 -51,80 -23,18 -51,28 -86,28 -46,0 -81,-17 -108,-49 -31,-40 -46,-104 -46,-194zm59 1c0,78 9,130 28,155 18,26 40,39 67,39 27,0 49,-13 68,-39 18,-26 27,-77 27,-155 0,-78 -9,-130 -27,-156 -19,-26 -41,-38 -69,-38 -26,0 -48,11 -64,34 -20,28 -30,82 -30,160z"/>
   <path class="fil5" d="M11612 79l1054 0c42,0 76,34 76,76l0 1031c0,41 -34,75 -76,75l-1054 0c-42,0 -76,-34 -76,-75l0 -1031c0,-42 34,-76 76,-76z"/>
   <path class="fil4" d="M12678 79c16,3 31,11 42,22 14,14 23,33 23,54l0 1031c0,21 -9,40 -23,54 -14,14 -33,22 -54,22l-1054 0c-21,0 -40,-8 -54,-22 -14,-14 -23,-33 -23,-54l0 -1031c0,-21 9,-40 23,-54 11,-11 26,-19 42,-22l1078 0zm-12 1l-1054 0c-21,0 -39,9 -53,22 -13,14 -22,32 -22,53l0 1031c0,20 9,39 22,52 14,14 32,22 53,22l1054 0c21,0 39,-8 53,-22 13,-13 22,-32 22,-52l0 -1031c0,-21 -9,-39 -22,-53 -14,-13 -32,-22 -53,-22z"/>
   <path class="fil2" d="M11969 589c0,-56 6,-101 18,-135 11,-34 28,-61 51,-79 23,-19 51,-28 86,-28 25,0 47,5 67,15 19,11 35,26 47,45 13,19 22,43 29,70 8,28 11,65 11,112 0,56 -6,101 -17,135 -11,35 -28,61 -51,80 -23,18 -52,28 -86,28 -46,0 -82,-17 -108,-49 -31,-40 -47,-104 -47,-194zm60 1c0,78 9,130 27,155 18,26 41,39 68,39 26,0 49,-13 67,-39 18,-26 27,-77 27,-155 0,-78 -9,-130 -27,-156 -18,-26 -41,-39 -68,-39 -27,0 -48,12 -64,35 -20,28 -30,82 -30,160z"/>
   <path class="fil2" d="M3501 2814l-2767 0 0 8567 2767 0 0 -8567zm-2824 -113l2881 0 57 0 0 57 0 8680 0 57 -57 0 -2881 0 -57 0 0 -57 0 -8680 0 -57 57 0z"/>
   <polygon class="fil6" points="1761,4370 770,4370 770,7098 770,9825 1761,9825 1761,10015 675,10015 581,10015 581,9920 581,7098 581,4275 581,4180 675,4180 1761,4180 "/>
   <polygon class="fil6" points="21283,4136 22368,4136 22463,4136 22463,4231 22463,7054 22463,9876 22463,9971 22368,9971 21283,9971 21283,9781 22274,9781 22274,7054 22274,4326 21283,4326 "/>
  </g>
  <path class="fil7" d="M689 79l21655 0c354,0 644,290 644,644l0 12665c0,354 -290,644 -644,644l-21655 0c-355,0 -645,-290 -645,-644l0 -12665c0,-354 290,-644 645,-644z"/>
  <path class="fil4" d="M770 0l21492 0c213,0 405,87 545,226 140,140 226,333 226,545l0 12569c0,212 -86,405 -226,545 -140,139 -332,226 -545,226l-21492 0c-212,0 -405,-87 -545,-226 -139,-140 -226,-333 -226,-545l0 -12569c0,-212 87,-405 226,-545 140,-139 333,-226 545,-226zm21492 263l-21492 0c-139,0 -266,58 -358,150 -92,92 -150,219 -150,358l0 12569c0,139 58,266 150,358 92,93 219,150 358,150l21492 0c140,0 267,-57 359,-150 92,-92 149,-219 149,-358l0 -12569c0,-139 -57,-266 -149,-358 -92,-92 -219,-150 -359,-150z"/>
 </g>
</svg>
