<?xml version="1.0" encoding="UTF-8"?>
<!DOCTYPE svg PUBLIC "-//W3C//DTD SVG 1.1//EN" "http://www.w3.org/Graphics/SVG/1.1/DTD/svg11.dtd">
<!-- Creator: CorelDRAW X7 -->
<svg xmlns="http://www.w3.org/2000/svg" xml:space="preserve" width="5.4186mm" height="5.2492mm" version="1.1" style="shape-rendering:geometricPrecision; text-rendering:geometricPrecision; image-rendering:optimizeQuality; fill-rule:evenodd; clip-rule:evenodd"
viewBox="0 0 542 525"
 xmlns:xlink="http://www.w3.org/1999/xlink">
 <defs>
  <style type="text/css">
   <![CDATA[
    .fil0 {fill:#2F2C2A}
   ]]>
  </style>
 </defs>
 <g id="__x0023_Layer_x0020_1">
  <metadata id="CorelCorpID_0Corel-Layer"/>
  <path class="fil0" d="M271 -4c-150,0 -271,122 -271,271 0,120 78,222 185,257 14,3 19,-5 19,-13 0,-6 -1,-27 -1,-50 -75,16 -91,-32 -91,-32 -12,-31 -30,-40 -30,-40 -25,-16 2,-16 2,-16 27,2 41,28 41,28 25,41 64,29 79,22 3,-17 10,-29 17,-36 -60,-7 -123,-30 -123,-134 0,-29 11,-54 28,-73 -3,-6 -12,-34 3,-71 0,0 22,-7 74,28 22,-6 45,-9 68,-10 23,1 46,4 68,10 51,-35 74,-28 74,-28 15,37 6,65 3,71 17,19 28,44 28,73 0,104 -64,127 -124,134 10,8 18,25 18,50 0,36 0,65 0,74 0,8 5,16 19,13 107,-35 185,-137 185,-257 0,-149 -122,-271 -271,-271zm-69 439c0,2 -2,5 -5,5 -3,1 -6,-1 -7,-3 0,-2 2,-4 5,-5 4,0 6,1 7,3zm-21 4c0,2 -2,4 -6,4 -3,0 -5,-2 -5,-4 0,-2 2,-4 5,-4 4,0 6,2 6,4zm-22 -2c-1,2 -4,3 -7,2 -3,-1 -5,-3 -4,-5 0,-2 3,-3 7,-2 3,0 5,3 4,5zm-20 -9c-2,2 -5,2 -7,-1 -3,-2 -3,-5 -2,-7 2,-1 5,-1 7,1 3,3 3,6 2,7zm-15 -15c-1,1 -4,0 -6,-2 -2,-2 -2,-5 0,-7 2,-1 5,0 6,3 2,2 2,5 0,6zm-10 -15c-2,1 -4,0 -6,-2 -2,-1 -2,-4 -1,-5 2,-1 4,-1 6,1 2,2 2,4 1,6zm-11 -13c-1,2 -3,2 -5,1 -2,-1 -3,-2 -3,-4 1,-1 3,-2 5,-1 2,1 3,3 3,4z"/>
 </g>
</svg>
