<?xml version="1.0" encoding="UTF-8"?>
<!DOCTYPE svg PUBLIC "-//W3C//DTD SVG 1.1//EN" "http://www.w3.org/Graphics/SVG/1.1/DTD/svg11.dtd">
<!-- Creator: CorelDRAW X7 -->
<svg xmlns="http://www.w3.org/2000/svg" xml:space="preserve" width="140.039mm" height="133.773mm" version="1.1" style="shape-rendering:geometricPrecision; text-rendering:geometricPrecision; image-rendering:optimizeQuality; fill-rule:evenodd; clip-rule:evenodd"
viewBox="0 0 14004 13377"
 xmlns:xlink="http://www.w3.org/1999/xlink">
 <defs>
  <style type="text/css">
   <![CDATA[
    .fil2 {fill:#41403C}
    .fil0 {fill:#6C6D6F}
    .fil1 {fill:url(#id0)}
   ]]>
  </style>
  <radialGradient id="id0" gradientUnits="objectBoundingBox" cx="50%" cy="50%" r="50%" fx="50%" fy="50%">
   <stop offset="0" style="stop-opacity:1; stop-color:#DB1600"/>
   <stop offset="1" style="stop-opacity:1; stop-color:#D11C29"/>
  </radialGradient>
 </defs>
 <g id="Слой_x0020_1">
  <metadata id="CorelCorpID_0Corel-Layer"/>
  <g id="_818894400">
   <path class="fil0" d="M11177 3354l281 -40c58,-74 270,-200 347,-265 263,-223 213,-305 306,-246 -139,-271 -604,-762 -832,-967 -300,-270 -253,-249 -643,-547 -107,-81 -241,-166 -364,-245 -229,-146 -494,-299 -770,-421 -1240,-548 -2515,-788 -4047,-508 -3962,724 -6316,4757 -5161,8551 271,888 795,1824 1390,2476 290,318 765,753 1121,995 768,523 1524,892 2480,1095 1236,263 2489,163 3667,-251 134,-47 302,-128 438,-167 46,-667 66,-1063 -210,-1627 -243,-497 -477,-811 -809,-1123 -90,-86 -149,-150 -249,-228 -98,-77 -167,-137 -266,-210 -469,-343 -1467,-831 -2039,-891 232,133 488,240 719,385 681,425 1505,1025 1374,1974 -79,572 -587,961 -1166,1079 -676,137 -1367,-12 -1938,-214 -1969,-694 -3721,-2626 -3725,-5266 -6,-4966 6012,-7500 9578,-3944 77,76 200,194 271,283 75,94 196,222 247,322z"/>
   <path class="fil1" d="M12294 3037c-131,126 -611,243 -836,277l-281 40c-1710,177 -2766,-134 -4316,-246 -469,-34 -1085,-24 -760,625 307,613 200,1737 -770,2080 -845,298 -1451,-41 -2083,-45 -184,-2 -506,15 -615,187 299,-16 405,-132 551,92 -529,-45 -1348,-295 -1503,261 600,-167 1145,25 1666,207 1245,435 2948,1328 3965,2042 196,138 375,261 571,407 1082,813 2311,1935 2774,3260 129,370 161,672 200,784 110,-556 -24,-827 -12,-1094 -81,-144 -117,-400 -178,-573 -65,-181 -139,-360 -215,-526 -628,-1260 -1398,-2137 -2324,-3075l-683 -666c-93,-89 -146,-110 -246,-222 101,11 1634,489 2006,43 -356,-89 -809,-163 -1040,-388 176,25 364,84 547,119 193,38 378,63 582,83 312,30 951,16 1166,-149 -31,-15 -639,-107 -769,-146 -235,-69 -480,-171 -626,-300 921,159 2471,489 3173,-128l-3 -28c-464,-5 -1666,29 -2007,-165 1137,-41 2118,1 3130,-685 207,-140 543,-427 641,-669 -303,105 -573,289 -911,348 -126,82 -590,173 -769,189l-290 47c-888,47 -1082,113 -2058,25 -637,-58 -1260,-174 -1854,-315 -607,-144 -770,-280 -986,339 -186,533 -762,1293 -1236,1488 83,-101 273,-270 491,-539 396,-489 455,-910 620,-1443 116,-372 388,-273 708,-181 813,232 2708,841 3301,14 -579,98 -920,65 -1488,-33 1153,-154 1809,-226 2693,-938 157,-126 477,-444 553,-678 -169,95 -278,215 -479,275z"/>
   <path class="fil0" d="M12235 5958l3 28c74,1150 16,1916 -403,2891 -171,400 -375,749 -602,1065 -162,225 -597,778 -781,873 76,166 150,345 215,526 61,173 97,429 178,573 106,-50 220,-176 313,-249 608,-478 1375,-1616 1646,-2272 557,-1346 662,-2253 476,-3848 -150,36 -321,133 -486,186 -175,55 -361,96 -549,142l-10 85z"/>
   <path class="fil0" d="M12029 5023l290 -47 79 -65c37,-24 54,-30 99,-59l325 -255c34,-34 42,-49 72,-84l97 -90c-63,-118 -112,-283 -174,-418 -62,-138 -145,-289 -187,-418 -125,51 -4,-4 -63,34 -16,11 -48,35 -65,48 -43,33 -62,45 -105,79 -73,57 -140,109 -216,155 -95,58 -435,231 -485,276 101,273 239,528 333,844z"/>
   <path class="fil2" d="M11458 3314c225,-34 705,-151 836,-277l-183 -234c-93,-59 -43,23 -306,246 -77,65 -289,191 -347,265z"/>
   <path class="fil2" d="M12319 4976c179,-16 643,-107 769,-189l-97 -364 -97 90c-30,35 -38,50 -72,84l-325 255c-45,29 -62,35 -99,59l-79 65z"/>
  </g>
 </g>
</svg>
