<?xml version="1.0" encoding="UTF-8"?>
<!DOCTYPE svg PUBLIC "-//W3C//DTD SVG 1.1//EN" "http://www.w3.org/Graphics/SVG/1.1/DTD/svg11.dtd">
<!-- Creator: CorelDRAW X7 -->
<svg xmlns="http://www.w3.org/2000/svg" xml:space="preserve" width="287.514mm" height="255.058mm" version="1.1" style="shape-rendering:geometricPrecision; text-rendering:geometricPrecision; image-rendering:optimizeQuality; fill-rule:evenodd; clip-rule:evenodd"
viewBox="0 0 28751 25506"
 xmlns:xlink="http://www.w3.org/1999/xlink">
 <defs>
  <style type="text/css">
   <![CDATA[
    .str0 {stroke:black;stroke-width:141.11;stroke-dasharray:705.550000 705.550000}
    .fil2 {fill:none}
    .fil198 {fill:#0036FF}
    .fil197 {fill:#003AFF}
    .fil196 {fill:#003FFF}
    .fil195 {fill:#0043FF}
    .fil194 {fill:#0048FF}
    .fil193 {fill:#004CFF}
    .fil192 {fill:#0051FF}
    .fil191 {fill:#0055FF}
    .fil190 {fill:#0059FF}
    .fil189 {fill:#005EFF}
    .fil188 {fill:#0062FF}
    .fil187 {fill:#0067FF}
    .fil186 {fill:#006BFF}
    .fil185 {fill:#006FFF}
    .fil184 {fill:#0074FF}
    .fil183 {fill:#0078FF}
    .fil182 {fill:#007DFF}
    .fil181 {fill:#0081FF}
    .fil180 {fill:#0085FF}
    .fil179 {fill:#008AFF}
    .fil178 {fill:#008EFF}
    .fil177 {fill:#0093FF}
    .fil176 {fill:#0097FF}
    .fil175 {fill:#009BFF}
    .fil174 {fill:#00A0FF}
    .fil173 {fill:#00A4FF}
    .fil172 {fill:#00A9FF}
    .fil171 {fill:#00ADFF}
    .fil170 {fill:#00B1FF}
    .fil169 {fill:#00B6FF}
    .fil168 {fill:#00BAFF}
    .fil167 {fill:#00BFFF}
    .fil166 {fill:#00C3FF}
    .fil165 {fill:#00C7FF}
    .fil164 {fill:#00CCFF}
    .fil163 {fill:#00D0FF}
    .fil162 {fill:#00D5FF}
    .fil161 {fill:#00D9FF}
    .fil160 {fill:#00DEFF}
    .fil159 {fill:#00E2FF}
    .fil158 {fill:#00E6FF}
    .fil157 {fill:#00EBFF}
    .fil156 {fill:#00EFFF}
    .fil155 {fill:#00F2FC}
    .fil154 {fill:#00F3F5}
    .fil152 {fill:#01F3E5}
    .fil153 {fill:#01F3ED}
    .fil150 {fill:#01F4D6}
    .fil151 {fill:#01F4DE}
    .fil199 {fill:#0233FF}
    .fil149 {fill:#02F4CE}
    .fil147 {fill:#02F5BF}
    .fil148 {fill:#02F5C6}
    .fil144 {fill:#03F6A8}
    .fil145 {fill:#03F6AF}
    .fil146 {fill:#03F6B7}
    .fil143 {fill:#03F7A0}
    .fil142 {fill:#04F798}
    .fil139 {fill:#04F881}
    .fil140 {fill:#04F889}
    .fil141 {fill:#04F891}
    .fil137 {fill:#05F972}
    .fil138 {fill:#05F97A}
    .fil136 {fill:#05FA6A}
    .fil134 {fill:#06FA5B}
    .fil135 {fill:#06FA62}
    .fil132 {fill:#06FB4B}
    .fil133 {fill:#06FB53}
    .fil129 {fill:#07FC34}
    .fil130 {fill:#07FC3C}
    .fil131 {fill:#07FC44}
    .fil128 {fill:#07FD2D}
    .fil127 {fill:#08FD25}
    .fil125 {fill:#08FE16}
    .fil126 {fill:#08FE1D}
    .fil200 {fill:#0931FF}
    .fil124 {fill:#09FE0E}
    .fil123 {fill:#09FF06}
    .fil122 {fill:#0AFF00}
    .fil201 {fill:#0F30FF}
    .fil121 {fill:#10FE00}
    .fil120 {fill:#15FE00}
    .fil202 {fill:#162EFF}
    .fil119 {fill:#1BFD00}
    .fil203 {fill:#1C2DFF}
    .fil118 {fill:#21FC00}
    .fil204 {fill:#232BFF}
    .fil117 {fill:#27FC00}
    .fil205 {fill:#292AFF}
    .fil10 {fill:#2BBA2B}
    .fil116 {fill:#2CFB00}
    .fil206 {fill:#3029FF}
    .fil115 {fill:#32FB00}
    .fil207 {fill:#3627FF}
    .fil114 {fill:#38FA00}
    .fil208 {fill:#3D26FF}
    .fil113 {fill:#3DF900}
    .fil112 {fill:#43F900}
    .fil209 {fill:#4424FF}
    .fil111 {fill:#49F800}
    .fil210 {fill:#4A23FF}
    .fil3 {fill:#4D4D4D}
    .fil0 {fill:#4D4D4D}
    .fil110 {fill:#4EF800}
    .fil275 {fill:#504B5E}
    .fil211 {fill:#5121FF}
    .fil274 {fill:#519486}
    .fil109 {fill:#54F700}
    .fil212 {fill:#5720FF}
    .fil108 {fill:#5AF600}
    .fil213 {fill:#5E1FFF}
    .fil107 {fill:#5FF600}
    .fil214 {fill:#641DFF}
    .fil106 {fill:#65F500}
    .fil7 {fill:#666666}
    .fil215 {fill:#6B1CFF}
    .fil105 {fill:#6BF500}
    .fil104 {fill:#70F400}
    .fil216 {fill:#711AFF}
    .fil103 {fill:#76F300}
    .fil217 {fill:#7819FF}
    .fil102 {fill:#7CF300}
    .fil218 {fill:#7F17FF}
    .fil101 {fill:#81F200}
    .fil219 {fill:#8516FF}
    .fil271 {fill:#8585B8}
    .fil100 {fill:#87F200}
    .fil220 {fill:#8C15FF}
    .fil269 {fill:#8C3535}
    .fil99 {fill:#8DF100}
    .fil221 {fill:#9213FF}
    .fil98 {fill:#92F000}
    .fil97 {fill:#98F000}
    .fil222 {fill:#9912FF}
    .fil96 {fill:#9EEF00}
    .fil223 {fill:#9F10FF}
    .fil95 {fill:#A3EF00}
    .fil224 {fill:#A60FFF}
    .fil94 {fill:#A9EE00}
    .fil225 {fill:#AC0DFF}
    .fil93 {fill:#AFED00}
    .fil226 {fill:#B30CFF}
    .fil272 {fill:#B4D4B0}
    .fil92 {fill:#B4ED00}
    .fil273 {fill:#B7AFFF}
    .fil227 {fill:#B90BFF}
    .fil91 {fill:#BAEC00}
    .fil8 {fill:#BD0000}
    .fil228 {fill:#C009FF}
    .fil90 {fill:#C0EC00}
    .fil89 {fill:#C5EB00}
    .fil229 {fill:#C708FF}
    .fil88 {fill:#CBEA00}
    .fil5 {fill:#CCCCCC}
    .fil230 {fill:#CD06FF}
    .fil87 {fill:#D1EA00}
    .fil231 {fill:#D405FF}
    .fil86 {fill:#D6E900}
    .fil232 {fill:#DA03FF}
    .fil85 {fill:#DCE900}
    .fil233 {fill:#E102FF}
    .fil84 {fill:#E2E800}
    .fil4 {fill:#E6E6E6}
    .fil266 {fill:#E6E8FA}
    .fil234 {fill:#E701FF}
    .fil83 {fill:#E7E700}
    .fil235 {fill:#EA00FA}
    .fil236 {fill:#EB00F2}
    .fil238 {fill:#EC00E1}
    .fil237 {fill:#EC00E9}
    .fil239 {fill:#ED00D9}
    .fil9 {fill:#EDE028}
    .fil82 {fill:#EDE700}
    .fil240 {fill:#EE00D0}
    .fil242 {fill:#EF00C0}
    .fil241 {fill:#EF00C8}
    .fil243 {fill:#F000B7}
    .fil245 {fill:#F100A7}
    .fil244 {fill:#F100AF}
    .fil246 {fill:#F2009E}
    .fil248 {fill:#F3008E}
    .fil247 {fill:#F30096}
    .fil81 {fill:#F3E600}
    .fil249 {fill:#F40085}
    .fil251 {fill:#F50075}
    .fil250 {fill:#F5007D}
    .fil267 {fill:#F5E1D2}
    .fil6 {fill:whitesmoke}
    .fil252 {fill:#F6006C}
    .fil254 {fill:#F7005C}
    .fil253 {fill:#F70064}
    .fil255 {fill:#F80053}
    .fil80 {fill:#F8E600}
    .fil256 {fill:#F9004B}
    .fil258 {fill:#FA003A}
    .fil257 {fill:#FA0043}
    .fil259 {fill:#FB0032}
    .fil261 {fill:#FC0021}
    .fil260 {fill:#FC002A}
    .fil262 {fill:#FD0019}
    .fil264 {fill:#FE0008}
    .fil263 {fill:#FE0011}
    .fil79 {fill:#FEE500}
    .fil265 {fill:red}
    .fil11 {fill:#FF0200}
    .fil12 {fill:#FF0500}
    .fil13 {fill:#FF0700}
    .fil14 {fill:#FF0A00}
    .fil15 {fill:#FF0C00}
    .fil16 {fill:#FF0F00}
    .fil17 {fill:#FF1100}
    .fil18 {fill:#FF1300}
    .fil19 {fill:#FF1600}
    .fil20 {fill:#FF1800}
    .fil21 {fill:#FF1B00}
    .fil22 {fill:#FF1D00}
    .fil23 {fill:#FF2000}
    .fil24 {fill:#FF2200}
    .fil25 {fill:#FF2400}
    .fil26 {fill:#FF2700}
    .fil27 {fill:#FF2900}
    .fil28 {fill:#FF2C00}
    .fil29 {fill:#FF2E00}
    .fil30 {fill:#FF3000}
    .fil31 {fill:#FF3300}
    .fil32 {fill:#FF3500}
    .fil33 {fill:#FF3800}
    .fil34 {fill:#FF3A00}
    .fil35 {fill:#FF3D00}
    .fil36 {fill:#FF3F00}
    .fil37 {fill:#FF4100}
    .fil38 {fill:#FF4400}
    .fil39 {fill:#FF4800}
    .fil40 {fill:#FF4C00}
    .fil41 {fill:#FF5000}
    .fil42 {fill:#FF5400}
    .fil43 {fill:#FF5800}
    .fil268 {fill:#FF5959}
    .fil44 {fill:#FF5B00}
    .fil45 {fill:#FF5F00}
    .fil46 {fill:#FF6300}
    .fil47 {fill:#FF6700}
    .fil48 {fill:#FF6B00}
    .fil49 {fill:#FF6F00}
    .fil50 {fill:#FF7300}
    .fil51 {fill:#FF7700}
    .fil52 {fill:#FF7B00}
    .fil53 {fill:#FF7F00}
    .fil54 {fill:#FF8300}
    .fil55 {fill:#FF8700}
    .fil56 {fill:#FF8B00}
    .fil57 {fill:#FF8F00}
    .fil58 {fill:#FF9300}
    .fil59 {fill:#FF9700}
    .fil60 {fill:#FF9B00}
    .fil61 {fill:#FF9F00}
    .fil62 {fill:#FFA300}
    .fil270 {fill:#FFA53F}
    .fil63 {fill:#FFA600}
    .fil64 {fill:#FFAA00}
    .fil65 {fill:#FFAE00}
    .fil66 {fill:#FFB200}
    .fil67 {fill:#FFB600}
    .fil68 {fill:#FFBA00}
    .fil69 {fill:#FFBE00}
    .fil70 {fill:#FFC200}
    .fil71 {fill:#FFC600}
    .fil72 {fill:#FFCA00}
    .fil73 {fill:#FFCE00}
    .fil74 {fill:#FFD200}
    .fil75 {fill:#FFD600}
    .fil76 {fill:#FFDA00}
    .fil77 {fill:#FFDE00}
    .fil78 {fill:#FFE200}
    .fil1 {fill:url(#id3)}
   ]]>
  </style>
   <clipPath id="id0">
    <path d="M509 2l27741 0c280,0 509,229 509,509l0 19530c0,280 -229,509 -509,509l-27741 0c-280,0 -509,-229 -509,-509l0 -19530c0,-280 229,-509 509,-509z"/>
   </clipPath>
   <clipPath id="id1">
    <path d="M14379 25506l-5925 0c-169,0 -419,-167 -219,-317l844 -634c388,-291 553,-715 618,-1109l473 -2879 4209 -17 4191 -1 461 2802c66,402 167,852 564,1148l935 695c206,153 80,312 -198,312l-5953 0z"/>
   </clipPath>
    <clipPath id="id2">
     <path d="M23018 2208l4057 0c116,0 212,95 212,211l0 3281c0,117 -96,212 -212,212l-4057 0c-116,0 -212,-95 -212,-212l0 -3281c0,-116 96,-211 212,-211z"/>
    </clipPath>
  <linearGradient id="id3" gradientUnits="userSpaceOnUse" x1="-1711.73" y1="19193.2" x2="30038.3" y2="19193.2">
   <stop offset="0" style="stop-opacity:1; stop-color:#F2F2F2"/>
   <stop offset="1" style="stop-opacity:1; stop-color:white"/>
  </linearGradient>
 </defs>
 <g id="Слой_x0020_2">
  <metadata id="CorelCorpID_0Corel-Layer"/>
  <path class="fil0" d="M509 2l27741 0c280,0 509,229 509,509l0 19530c0,280 -229,509 -509,509l-27741 0c-280,0 -509,-229 -509,-509l0 -19530c0,-280 229,-509 509,-509z"/>
  <g style="clip-path:url(#id0)">
   <g id="_790774048">
    <polygon id="1" class="fil1" points="-1712,16971 30038,16971 30038,21416 -1712,21416 "/>
   </g>
  </g>
  <path class="fil2" d="M509 2l27741 0c280,0 509,229 509,509l0 19530c0,280 -229,509 -509,509l-27741 0c-280,0 -509,-229 -509,-509l0 -19530c0,-280 229,-509 509,-509z"/>
  <path class="fil3" d="M14379 19404c362,0 655,-293 655,-654 0,-361 -293,-654 -655,-654 -361,0 -654,293 -654,654 0,361 293,654 654,654z"/>
  <path class="fil4" d="M14379 25506l-5925 0c-169,0 -419,-167 -219,-317l844 -634c388,-291 553,-715 618,-1109l473 -2879 4209 -17 4191 -1 461 2802c66,402 167,852 564,1148l935 695c206,153 80,312 -198,312l-5953 0z"/>
  <g style="clip-path:url(#id1)">
   <g id="_790772960">
    <polygon id="1" class="fil5" points="6699,24181 22133,24181 22133,25707 6699,25707 "/>
   </g>
  </g>
  <path class="fil2" d="M14379 25506l-5925 0c-169,0 -419,-167 -219,-317l844 -634c388,-291 553,-715 618,-1109l473 -2879 4209 -17 4191 -1 461 2802c66,402 167,852 564,1148l935 695c206,153 80,312 -198,312l-5953 0z"/>
  <polygon class="fil6" points="1186,1239 27573,1239 27573,15703 1186,15703 "/>
  <path class="fil7" d="M1657 2002l882 0c78,0 141,64 141,142l0 13229c0,77 -63,141 -141,141l-882 0c-77,0 -141,-64 -141,-141l0 -13229c0,-78 64,-142 141,-142z"/>
  <path class="fil4" d="M1887 2973l423 0c78,0 141,-64 141,-141l0 -424c0,-77 -63,-141 -141,-141l-423 0c-78,0 -142,64 -142,141l0 424c0,77 64,141 142,141z"/>
  <path class="fil4" d="M1887 3996l423 0c78,0 141,-64 141,-141l0 -424c0,-77 -63,-141 -141,-141l-423 0c-78,0 -142,64 -142,141l0 424c0,77 64,141 142,141z"/>
  <path class="fil4" d="M1887 5019l423 0c78,0 141,-64 141,-141l0 -424c0,-77 -63,-141 -141,-141l-423 0c-78,0 -142,64 -142,141l0 424c0,77 64,141 142,141z"/>
  <path class="fil4" d="M1887 6042l423 0c78,0 141,-64 141,-141l0 -424c0,-77 -63,-141 -141,-141l-423 0c-78,0 -142,64 -142,141l0 424c0,77 64,141 142,141z"/>
  <path class="fil4" d="M1887 7065l423 0c78,0 141,-64 141,-141l0 -424c0,-77 -63,-141 -141,-141l-423 0c-78,0 -142,64 -142,141l0 424c0,77 64,141 142,141z"/>
  <path class="fil4" d="M1887 8088l423 0c78,0 141,-64 141,-141l0 -424c0,-77 -63,-141 -141,-141l-423 0c-78,0 -142,64 -142,141l0 424c0,77 64,141 142,141z"/>
  <path class="fil4" d="M1887 9111l423 0c78,0 141,-64 141,-141l0 -424c0,-77 -63,-141 -141,-141l-423 0c-78,0 -142,64 -142,141l0 424c0,77 64,141 142,141z"/>
  <path class="fil4" d="M1887 10134l423 0c78,0 141,-63 141,-141l0 -423c0,-78 -63,-142 -141,-142l-423 0c-78,0 -142,64 -142,142l0 423c0,78 64,141 142,141z"/>
  <path class="fil4" d="M1887 11157l423 0c78,0 141,-63 141,-141l0 -423c0,-78 -63,-142 -141,-142l-423 0c-78,0 -142,64 -142,142l0 423c0,78 64,141 142,141z"/>
  <path class="fil4" d="M1887 12180l423 0c78,0 141,-63 141,-141l0 -423c0,-78 -63,-141 -141,-141l-423 0c-78,0 -142,63 -142,141l0 423c0,78 64,141 142,141z"/>
  <path class="fil4" d="M1887 13203l423 0c78,0 141,-63 141,-141l0 -423c0,-78 -63,-141 -141,-141l-423 0c-78,0 -142,63 -142,141l0 423c0,78 64,141 142,141z"/>
  <path class="fil4" d="M1887 14226l423 0c78,0 141,-63 141,-141l0 -423c0,-78 -63,-141 -141,-141l-423 0c-78,0 -142,63 -142,141l0 423c0,78 64,141 142,141z"/>
  <path class="fil4" d="M1887 15249l423 0c78,0 141,-63 141,-141l0 -423c0,-78 -63,-141 -141,-141l-423 0c-78,0 -142,63 -142,141l0 423c0,78 64,141 142,141z"/>
  <polygon class="fil4" points="1186,1239 27573,1239 27573,1826 1186,1826 "/>
  <path class="fil8" d="M1518 1726c107,0 194,-86 194,-193 0,-107 -87,-194 -194,-194 -107,0 -194,87 -194,194 0,107 87,193 194,193z"/>
  <path class="fil9" d="M2098 1726c107,0 194,-86 194,-193 0,-107 -87,-194 -194,-194 -107,0 -194,87 -194,194 0,107 87,193 194,193z"/>
  <path class="fil10" d="M2664 1726c107,0 193,-86 193,-193 0,-107 -86,-194 -193,-194 -108,0 -194,87 -194,194 0,107 86,193 194,193z"/>
  <polygon class="fil7" points="27586,1841 22439,1841 22439,15718 27586,15718 "/>
  <g>
   <g style="clip-path:url(#id2)">
    <polygon class="fil11" points="25046,4060 21878,4044 21881,3947 "/>
    <polygon id="1" class="fil12" points="25046,4060 21880,3963 21885,3883 "/>
    <polygon id="2" class="fil13" points="25046,4060 21884,3899 21891,3819 "/>
    <polygon id="3" class="fil14" points="25046,4060 21890,3835 21899,3755 "/>
    <polygon id="4" class="fil15" points="25046,4060 21897,3771 21909,3691 "/>
    <polygon id="5" class="fil16" points="25046,4060 21907,3707 21921,3628 "/>
    <polygon id="6" class="fil17" points="25046,4060 21918,3644 21935,3565 "/>
    <polygon id="7" class="fil18" points="25046,4060 21932,3580 21951,3502 "/>
    <polygon id="8" class="fil19" points="25046,4060 21947,3517 21968,3439 "/>
    <polygon id="9" class="fil20" points="25046,4060 21964,3455 21988,3377 "/>
    <polygon id="10" class="fil21" points="25046,4060 21983,3392 22009,3315 "/>
    <polygon id="11" class="fil22" points="25046,4060 22004,3330 22032,3253 "/>
    <polygon id="12" class="fil23" points="25046,4060 22026,3269 22057,3192 "/>
    <polygon id="13" class="fil24" points="25046,4060 22051,3208 22083,3132 "/>
    <polygon id="14" class="fil25" points="25046,4060 22077,3147 22112,3072 "/>
    <polygon id="15" class="fil26" points="25046,4060 22105,3087 22142,3013 "/>
    <polygon id="16" class="fil27" points="25046,4060 22134,3028 22174,2954 "/>
    <polygon id="17" class="fil28" points="25046,4060 22166,2969 22208,2896 "/>
    <polygon id="18" class="fil29" points="25046,4060 22199,2911 22243,2839 "/>
    <polygon id="19" class="fil30" points="25046,4060 22234,2853 22280,2783 "/>
    <polygon id="20" class="fil31" points="25046,4060 22271,2797 22319,2727 "/>
    <polygon id="21" class="fil32" points="25046,4060 22309,2741 22359,2672 "/>
    <polygon id="22" class="fil33" points="25046,4060 22349,2686 22401,2618 "/>
    <polygon id="23" class="fil34" points="25046,4060 22391,2631 22445,2565 "/>
    <polygon id="24" class="fil35" points="25046,4060 22434,2578 22490,2512 "/>
    <polygon id="25" class="fil36" points="25046,4060 22479,2525 22537,2461 "/>
    <polygon id="26" class="fil37" points="25046,4060 22525,2474 22585,2410 "/>
    <polygon id="27" class="fil38" points="25046,4060 22573,2423 22635,2361 "/>
    <polygon id="28" class="fil39" points="25046,4060 22622,2373 22686,2312 "/>
    <polygon id="29" class="fil40" points="25046,4060 22673,2325 22738,2265 "/>
    <polygon id="30" class="fil41" points="25046,4060 22725,2277 22792,2219 "/>
    <polygon id="31" class="fil42" points="25046,4060 22779,2230 22848,2174 "/>
    <polygon id="32" class="fil43" points="25046,4060 22834,2185 22904,2130 "/>
    <polygon id="33" class="fil44" points="25046,4060 22890,2141 22962,2087 "/>
    <polygon id="34" class="fil45" points="25046,4060 22948,2098 23021,2045 "/>
    <polygon id="35" class="fil46" points="25046,4060 23007,2056 23082,2005 "/>
    <polygon id="36" class="fil47" points="25046,4060 23067,2015 23143,1965 "/>
    <polygon id="37" class="fil48" points="25046,4060 23128,1975 23206,1927 "/>
    <polygon id="38" class="fil49" points="25046,4060 23190,1937 23270,1891 "/>
    <polygon id="39" class="fil50" points="25046,4060 23254,1900 23335,1855 "/>
    <polygon id="40" class="fil51" points="25046,4060 23319,1864 23401,1821 "/>
    <polygon id="41" class="fil52" points="25046,4060 23384,1830 23468,1788 "/>
    <polygon id="42" class="fil53" points="25046,4060 23451,1797 23536,1757 "/>
    <polygon id="43" class="fil54" points="25046,4060 23519,1765 23604,1727 "/>
    <polygon id="44" class="fil55" points="25046,4060 23587,1735 23674,1699 "/>
    <polygon id="45" class="fil56" points="25046,4060 23657,1706 23745,1671 "/>
    <polygon id="46" class="fil57" points="25046,4060 23727,1678 23816,1646 "/>
    <polygon id="47" class="fil58" points="25046,4060 23798,1652 23888,1622 "/>
    <polygon id="48" class="fil59" points="25046,4060 23870,1628 23961,1599 "/>
    <polygon id="49" class="fil60" points="25046,4060 23943,1605 24034,1577 "/>
    <polygon id="50" class="fil61" points="25046,4060 24016,1583 24108,1558 "/>
    <polygon id="51" class="fil62" points="25046,4060 24090,1563 24183,1539 "/>
    <polygon id="52" class="fil63" points="25046,4060 24164,1544 24258,1523 "/>
    <polygon id="53" class="fil64" points="25046,4060 24239,1527 24333,1507 "/>
    <polygon id="54" class="fil65" points="25046,4060 24314,1511 24409,1494 "/>
    <polygon id="55" class="fil66" points="25046,4060 24390,1497 24486,1481 "/>
    <polygon id="56" class="fil67" points="25046,4060 24467,1485 24562,1471 "/>
    <polygon id="57" class="fil68" points="25046,4060 24543,1474 24639,1462 "/>
    <polygon id="58" class="fil69" points="25046,4060 24620,1464 24717,1454 "/>
    <polygon id="59" class="fil70" points="25046,4060 24697,1456 24794,1448 "/>
    <polygon id="60" class="fil71" points="25046,4060 24775,1450 24872,1444 "/>
    <polygon id="61" class="fil72" points="25046,4060 24852,1445 24949,1441 "/>
    <polygon id="62" class="fil73" points="25046,4060 24930,1442 25027,1440 "/>
    <polygon id="63" class="fil74" points="25046,4060 25008,1441 25105,1441 "/>
    <polygon id="64" class="fil75" points="25046,4060 25085,1441 25183,1443 "/>
    <polygon id="65" class="fil76" points="25046,4060 25163,1442 25260,1446 "/>
    <polygon id="66" class="fil77" points="25046,4060 25241,1445 25338,1451 "/>
    <polygon id="67" class="fil78" points="25046,4060 25318,1450 25415,1458 "/>
    <polygon id="68" class="fil79" points="25046,4060 25396,1456 25492,1466 "/>
    <polygon id="69" class="fil80" points="25046,4060 25473,1464 25569,1476 "/>
    <polygon id="70" class="fil81" points="25046,4060 25550,1474 25646,1487 "/>
    <polygon id="71" class="fil82" points="25046,4060 25626,1485 25722,1500 "/>
    <polygon id="72" class="fil83" points="25046,4060 25703,1497 25797,1515 "/>
    <polygon id="73" class="fil84" points="25046,4060 25779,1511 25873,1531 "/>
    <polygon id="74" class="fil85" points="25046,4060 25854,1527 25948,1548 "/>
    <polygon id="75" class="fil86" points="25046,4060 25929,1544 26022,1567 "/>
    <polygon id="76" class="fil87" points="25046,4060 26003,1563 26096,1588 "/>
    <polygon id="77" class="fil88" points="25046,4060 26077,1583 26169,1610 "/>
    <polygon id="78" class="fil89" points="25046,4060 26150,1605 26241,1633 "/>
    <polygon id="79" class="fil90" points="25046,4060 26223,1628 26313,1658 "/>
    <polygon id="80" class="fil91" points="25046,4060 26295,1652 26384,1685 "/>
    <polygon id="81" class="fil92" points="25046,4060 26366,1678 26454,1713 "/>
    <polygon id="82" class="fil93" points="25046,4060 26436,1706 26523,1742 "/>
    <polygon id="83" class="fil94" points="25046,4060 26506,1735 26591,1773 "/>
    <polygon id="84" class="fil95" points="25046,4060 26574,1765 26659,1805 "/>
    <polygon id="85" class="fil96" points="25046,4060 26642,1797 26725,1838 "/>
    <polygon id="86" class="fil97" points="25046,4060 26709,1830 26791,1873 "/>
    <polygon id="87" class="fil98" points="25046,4060 26774,1864 26855,1909 "/>
    <polygon id="88" class="fil99" points="25046,4060 26839,1900 26918,1946 "/>
    <polygon id="89" class="fil100" points="25046,4060 26902,1937 26981,1985 "/>
    <polygon id="90" class="fil101" points="25046,4060 26965,1975 27042,2025 "/>
    <polygon id="91" class="fil102" points="25046,4060 27026,2015 27101,2066 "/>
    <polygon id="92" class="fil103" points="25046,4060 27086,2056 27160,2108 "/>
    <polygon id="93" class="fil104" points="25046,4060 27145,2098 27217,2151 "/>
    <polygon id="94" class="fil105" points="25046,4060 27203,2141 27273,2196 "/>
    <polygon id="95" class="fil106" points="25046,4060 27259,2185 27328,2242 "/>
    <polygon id="96" class="fil107" points="25046,4060 27314,2230 27381,2289 "/>
    <polygon id="97" class="fil108" points="25046,4060 27368,2277 27433,2337 "/>
    <polygon id="98" class="fil109" points="25046,4060 27420,2325 27483,2386 "/>
    <polygon id="99" class="fil110" points="25046,4060 27471,2373 27532,2435 "/>
    <polygon id="100" class="fil111" points="25046,4060 27520,2423 27580,2486 "/>
    <polygon id="101" class="fil112" points="25046,4060 27568,2474 27626,2538 "/>
    <polygon id="102" class="fil113" points="25046,4060 27614,2525 27670,2591 "/>
    <polygon id="103" class="fil114" points="25046,4060 27659,2578 27713,2645 "/>
    <polygon id="104" class="fil115" points="25046,4060 27702,2631 27754,2699 "/>
    <polygon id="105" class="fil116" points="25046,4060 27744,2686 27794,2755 "/>
    <polygon id="106" class="fil117" points="25046,4060 27784,2741 27832,2811 "/>
    <polygon id="107" class="fil118" points="25046,4060 27822,2797 27868,2868 "/>
    <polygon id="108" class="fil119" points="25046,4060 27859,2853 27902,2925 "/>
    <polygon id="109" class="fil120" points="25046,4060 27894,2911 27935,2984 "/>
    <polygon id="110" class="fil121" points="25046,4060 27927,2969 27966,3042 "/>
    <polygon id="111" class="fil122" points="25046,4060 27958,3028 27996,3102 "/>
    <polygon id="112" class="fil123" points="25046,4060 27988,3087 28023,3162 "/>
    <polygon id="113" class="fil124" points="25046,4060 28016,3147 28049,3223 "/>
    <polygon id="114" class="fil125" points="25046,4060 28042,3208 28073,3284 "/>
    <polygon id="115" class="fil126" points="25046,4060 28067,3269 28095,3346 "/>
    <polygon id="116" class="fil127" points="25046,4060 28089,3330 28115,3408 "/>
    <polygon id="117" class="fil128" points="25046,4060 28110,3392 28134,3470 "/>
    <polygon id="118" class="fil129" points="25046,4060 28129,3455 28150,3533 "/>
    <polygon id="119" class="fil130" points="25046,4060 28146,3517 28165,3596 "/>
    <polygon id="120" class="fil131" points="25046,4060 28161,3580 28178,3660 "/>
    <polygon id="121" class="fil132" points="25046,4060 28175,3644 28189,3723 "/>
    <polygon id="122" class="fil133" points="25046,4060 28186,3707 28198,3787 "/>
    <polygon id="123" class="fil134" points="25046,4060 28195,3771 28205,3851 "/>
    <polygon id="124" class="fil135" points="25046,4060 28203,3835 28210,3915 "/>
    <polygon id="125" class="fil136" points="25046,4060 28209,3899 28214,3979 "/>
    <polygon id="126" class="fil137" points="25046,4060 28213,3963 28215,4044 "/>
    <polygon id="127" class="fil138" points="25046,4060 28215,4028 28215,4108 "/>
    <polygon id="128" class="fil139" points="25046,4060 28215,4092 28212,4172 "/>
    <polygon id="129" class="fil140" points="25046,4060 28213,4156 28208,4236 "/>
    <polygon id="130" class="fil141" points="25046,4060 28209,4220 28202,4301 "/>
    <polygon id="131" class="fil142" points="25046,4060 28203,4285 28194,4365 "/>
    <polygon id="132" class="fil143" points="25046,4060 28195,4349 28184,4428 "/>
    <polygon id="133" class="fil144" points="25046,4060 28186,4412 28172,4492 "/>
    <polygon id="134" class="fil145" points="25046,4060 28175,4476 28158,4555 "/>
    <polygon id="135" class="fil146" points="25046,4060 28161,4539 28142,4618 "/>
    <polygon id="136" class="fil147" points="25046,4060 28146,4602 28125,4681 "/>
    <polygon id="137" class="fil148" points="25046,4060 28129,4665 28105,4743 "/>
    <polygon id="138" class="fil149" points="25046,4060 28110,4727 28084,4805 "/>
    <polygon id="139" class="fil150" points="25046,4060 28089,4789 28061,4866 "/>
    <polygon id="140" class="fil151" points="25046,4060 28067,4851 28036,4927 "/>
    <polygon id="141" class="fil152" points="25046,4060 28042,4912 28010,4988 "/>
    <polygon id="142" class="fil153" points="25046,4060 28016,4972 27981,5047 "/>
    <polygon id="143" class="fil154" points="25046,4060 27988,5032 27951,5107 "/>
    <polygon id="144" class="fil155" points="25046,4060 27958,5092 27919,5165 "/>
    <polygon id="145" class="fil156" points="25046,4060 27927,5151 27885,5223 "/>
    <polygon id="146" class="fil157" points="25046,4060 27894,5209 27850,5281 "/>
    <polygon id="147" class="fil158" points="25046,4060 27859,5266 27813,5337 "/>
    <polygon id="148" class="fil159" points="25046,4060 27822,5323 27774,5393 "/>
    <polygon id="149" class="fil160" points="25046,4060 27784,5379 27734,5448 "/>
    <polygon id="150" class="fil161" points="25046,4060 27744,5434 27692,5502 "/>
    <polygon id="151" class="fil162" points="25046,4060 27702,5488 27648,5555 "/>
    <polygon id="152" class="fil163" points="25046,4060 27659,5542 27603,5607 "/>
    <polygon id="153" class="fil164" points="25046,4060 27614,5594 27556,5659 "/>
    <polygon id="154" class="fil165" points="25046,4060 27568,5646 27508,5709 "/>
    <polygon id="155" class="fil166" points="25046,4060 27520,5697 27458,5759 "/>
    <polygon id="156" class="fil167" points="25046,4060 27471,5746 27407,5807 "/>
    <polygon id="157" class="fil168" points="25046,4060 27420,5795 27355,5855 "/>
    <polygon id="158" class="fil169" points="25046,4060 27368,5843 27301,5901 "/>
    <polygon id="159" class="fil170" points="25046,4060 27314,5889 27245,5946 "/>
    <polygon id="160" class="fil171" points="25046,4060 27259,5935 27189,5990 "/>
    <polygon id="161" class="fil172" points="25046,4060 27203,5979 27131,6033 "/>
    <polygon id="162" class="fil173" points="25046,4060 27145,6022 27072,6075 "/>
    <polygon id="163" class="fil174" points="25046,4060 27086,6064 27011,6115 "/>
    <polygon id="164" class="fil175" points="25046,4060 27026,6105 26950,6154 "/>
    <polygon id="165" class="fil176" points="25046,4060 26965,6144 26887,6192 "/>
    <polygon id="166" class="fil177" points="25046,4060 26902,6183 26823,6229 "/>
    <polygon id="167" class="fil178" points="25046,4060 26839,6220 26758,6264 "/>
    <polygon id="168" class="fil179" points="25046,4060 26774,6255 26692,6298 "/>
    <polygon id="169" class="fil180" points="25046,4060 26709,6290 26625,6331 "/>
    <polygon id="170" class="fil181" points="25046,4060 26642,6323 26557,6363 "/>
    <polygon id="171" class="fil182" points="25046,4060 26574,6355 26488,6393 "/>
    <polygon id="172" class="fil183" points="25046,4060 26506,6385 26419,6421 "/>
    <polygon id="173" class="fil184" points="25046,4060 26436,6414 26348,6448 "/>
    <polygon id="174" class="fil185" points="25046,4060 26366,6441 26277,6474 "/>
    <polygon id="175" class="fil186" points="25046,4060 26295,6467 26205,6498 "/>
    <polygon id="176" class="fil187" points="25046,4060 26223,6492 26132,6521 "/>
    <polygon id="177" class="fil188" points="25046,4060 26150,6515 26059,6542 "/>
    <polygon id="178" class="fil189" points="25046,4060 26077,6537 25985,6562 "/>
    <polygon id="179" class="fil190" points="25046,4060 26003,6557 25910,6580 "/>
    <polygon id="180" class="fil191" points="25046,4060 25929,6576 25835,6597 "/>
    <polygon id="181" class="fil192" points="25046,4060 25854,6593 25760,6612 "/>
    <polygon id="182" class="fil193" points="25046,4060 25779,6608 25684,6626 "/>
    <polygon id="183" class="fil194" points="25046,4060 25703,6622 25607,6638 "/>
    <polygon id="184" class="fil195" points="25046,4060 25626,6635 25531,6649 "/>
    <polygon id="185" class="fil196" points="25046,4060 25550,6646 25454,6658 "/>
    <polygon id="186" class="fil197" points="25046,4060 25473,6655 25376,6665 "/>
    <polygon id="187" class="fil198" points="25046,4060 25396,6663 25299,6671 "/>
    <polygon id="188" class="fil199" points="25046,4060 25318,6670 25221,6676 "/>
    <polygon id="189" class="fil200" points="25046,4060 25241,6674 25144,6678 "/>
    <polygon id="190" class="fil201" points="25046,4060 25163,6677 25066,6679 "/>
    <polygon id="191" class="fil202" points="25046,4060 25085,6679 24988,6679 "/>
    <polygon id="192" class="fil203" points="25046,4060 25008,6679 24910,6677 "/>
    <polygon id="193" class="fil204" points="25046,4060 24930,6677 24833,6674 "/>
    <polygon id="194" class="fil205" points="25046,4060 24852,6674 24755,6668 "/>
    <polygon id="195" class="fil206" points="25046,4060 24775,6670 24678,6662 "/>
    <polygon id="196" class="fil207" points="25046,4060 24697,6663 24601,6653 "/>
    <polygon id="197" class="fil208" points="25046,4060 24620,6655 24524,6644 "/>
    <polygon id="198" class="fil209" points="25046,4060 24543,6646 24447,6632 "/>
    <polygon id="199" class="fil210" points="25046,4060 24467,6635 24371,6619 "/>
    <polygon id="200" class="fil211" points="25046,4060 24390,6622 24295,6605 "/>
    <polygon id="201" class="fil212" points="25046,4060 24314,6608 24220,6589 "/>
    <polygon id="202" class="fil213" points="25046,4060 24239,6593 24145,6571 "/>
    <polygon id="203" class="fil214" points="25046,4060 24164,6576 24071,6552 "/>
    <polygon id="204" class="fil215" points="25046,4060 24090,6557 23997,6532 "/>
    <polygon id="205" class="fil216" points="25046,4060 24016,6537 23924,6510 "/>
    <polygon id="206" class="fil217" points="25046,4060 23943,6515 23852,6486 "/>
    <polygon id="207" class="fil218" points="25046,4060 23870,6492 23780,6461 "/>
    <polygon id="208" class="fil219" points="25046,4060 23798,6467 23709,6435 "/>
    <polygon id="209" class="fil220" points="25046,4060 23727,6441 23639,6407 "/>
    <polygon id="210" class="fil221" points="25046,4060 23657,6414 23570,6378 "/>
    <polygon id="211" class="fil222" points="25046,4060 23587,6385 23502,6347 "/>
    <polygon id="212" class="fil223" points="25046,4060 23519,6355 23434,6315 "/>
    <polygon id="213" class="fil224" points="25046,4060 23451,6323 23368,6282 "/>
    <polygon id="214" class="fil225" points="25046,4060 23384,6290 23302,6247 "/>
    <polygon id="215" class="fil226" points="25046,4060 23319,6255 23238,6211 "/>
    <polygon id="216" class="fil227" points="25046,4060 23254,6220 23175,6173 "/>
    <polygon id="217" class="fil228" points="25046,4060 23190,6183 23112,6135 "/>
    <polygon id="218" class="fil229" points="25046,4060 23128,6144 23051,6095 "/>
    <polygon id="219" class="fil230" points="25046,4060 23067,6105 22992,6054 "/>
    <polygon id="220" class="fil231" points="25046,4060 23007,6064 22933,6012 "/>
    <polygon id="221" class="fil232" points="25046,4060 22948,6022 22876,5968 "/>
    <polygon id="222" class="fil233" points="25046,4060 22890,5979 22820,5924 "/>
    <polygon id="223" class="fil234" points="25046,4060 22834,5935 22765,5878 "/>
    <polygon id="224" class="fil235" points="25046,4060 22779,5889 22712,5831 "/>
    <polygon id="225" class="fil236" points="25046,4060 22725,5843 22660,5783 "/>
    <polygon id="226" class="fil237" points="25046,4060 22673,5795 22610,5734 "/>
    <polygon id="227" class="fil238" points="25046,4060 22622,5746 22561,5684 "/>
    <polygon id="228" class="fil239" points="25046,4060 22573,5697 22513,5633 "/>
    <polygon id="229" class="fil240" points="25046,4060 22525,5646 22467,5581 "/>
    <polygon id="230" class="fil241" points="25046,4060 22479,5594 22423,5529 "/>
    <polygon id="231" class="fil242" points="25046,4060 22434,5542 22380,5475 "/>
    <polygon id="232" class="fil243" points="25046,4060 22391,5488 22339,5420 "/>
    <polygon id="233" class="fil244" points="25046,4060 22349,5434 22299,5365 "/>
    <polygon id="234" class="fil245" points="25046,4060 22309,5379 22261,5309 "/>
    <polygon id="235" class="fil246" points="25046,4060 22271,5323 22225,5252 "/>
    <polygon id="236" class="fil247" points="25046,4060 22234,5266 22190,5194 "/>
    <polygon id="237" class="fil248" points="25046,4060 22199,5209 22158,5136 "/>
    <polygon id="238" class="fil249" points="25046,4060 22166,5151 22127,5077 "/>
    <polygon id="239" class="fil250" points="25046,4060 22134,5092 22097,5018 "/>
    <polygon id="240" class="fil251" points="25046,4060 22105,5032 22070,4957 "/>
    <polygon id="241" class="fil252" points="25046,4060 22077,4972 22044,4897 "/>
    <polygon id="242" class="fil253" points="25046,4060 22051,4912 22020,4836 "/>
    <polygon id="243" class="fil254" points="25046,4060 22026,4851 21998,4774 "/>
    <polygon id="244" class="fil255" points="25046,4060 22004,4789 21978,4712 "/>
    <polygon id="245" class="fil256" points="25046,4060 21983,4727 21959,4649 "/>
    <polygon id="246" class="fil257" points="25046,4060 21964,4665 21943,4587 "/>
    <polygon id="247" class="fil258" points="25046,4060 21947,4602 21928,4524 "/>
    <polygon id="248" class="fil259" points="25046,4060 21932,4539 21915,4460 "/>
    <polygon id="249" class="fil260" points="25046,4060 21918,4476 21904,4396 "/>
    <polygon id="250" class="fil261" points="25046,4060 21907,4412 21895,4333 "/>
    <polygon id="251" class="fil262" points="25046,4060 21897,4349 21888,4269 "/>
    <polygon id="252" class="fil263" points="25046,4060 21890,4285 21883,4204 "/>
    <polygon id="253" class="fil264" points="25046,4060 21884,4220 21879,4140 "/>
    <polygon id="254" class="fil265" points="25046,4060 21880,4156 21878,4076 "/>
    <polygon id="255" class="fil265" points="25046,4060 21878,4092 21878,4028 "/>
   </g>
  </g>
  <path class="fil4" d="M22962 7257l4183 0c78,0 142,63 142,141l0 71c0,77 -64,141 -142,141l-4183 0c-78,0 -141,-64 -141,-141l0 -71c0,-78 63,-141 141,-141z"/>
  <path class="fil4" d="M22962 8139l4183 0c78,0 142,63 142,141l0 71c0,77 -64,141 -142,141l-4183 0c-78,0 -141,-64 -141,-141l0 -71c0,-78 63,-141 141,-141z"/>
  <path class="fil4" d="M22962 9021l4183 0c78,0 142,63 142,141l0 70c0,78 -64,142 -142,142l-4183 0c-78,0 -141,-64 -141,-142l0 -70c0,-78 63,-141 141,-141z"/>
  <path class="fil4" d="M22962 10745l4183 0c78,0 142,63 142,141l0 71c0,77 -64,141 -142,141l-4183 0c-78,0 -141,-64 -141,-141l0 -71c0,-78 63,-141 141,-141z"/>
  <path class="fil4" d="M22962 11627l4183 0c78,0 142,63 142,141l0 71c0,77 -64,141 -142,141l-4183 0c-78,0 -141,-64 -141,-141l0 -71c0,-78 63,-141 141,-141z"/>
  <path class="fil4" d="M22962 12509l4183 0c78,0 142,63 142,141l0 70c0,78 -64,142 -142,142l-4183 0c-78,0 -141,-64 -141,-142l0 -70c0,-78 63,-141 141,-141z"/>
  <path class="fil4" d="M22962 13391l4183 0c78,0 142,63 142,141l0 70c0,78 -64,142 -142,142l-4183 0c-78,0 -141,-64 -141,-142l0 -70c0,-78 63,-141 141,-141z"/>
  <path class="fil4" d="M22962 14273l4183 0c78,0 142,63 142,141l0 70c0,78 -64,141 -142,141l-4183 0c-78,0 -141,-63 -141,-141l0 -70c0,-78 63,-141 141,-141z"/>
  <path class="fil7" d="M23283 7574c126,0 229,-64 229,-141 0,-78 -103,-142 -229,-142 -127,0 -230,64 -230,142 0,77 103,141 230,141z"/>
  <path class="fil7" d="M25480 8456c127,0 230,-64 230,-142 0,-77 -103,-141 -230,-141 -126,0 -229,64 -229,141 0,78 103,142 229,142z"/>
  <path class="fil7" d="M24359 9338c126,0 229,-64 229,-142 0,-78 -103,-141 -229,-141 -127,0 -230,63 -230,141 0,78 103,142 230,142z"/>
  <path class="fil7" d="M23283 11062c126,0 229,-64 229,-141 0,-78 -103,-142 -229,-142 -127,0 -230,64 -230,142 0,77 103,141 230,141z"/>
  <path class="fil7" d="M25417 11944c127,0 229,-64 229,-142 0,-77 -102,-141 -229,-141 -127,0 -229,64 -229,141 0,78 102,142 229,142z"/>
  <path class="fil7" d="M26052 12826c127,0 229,-64 229,-142 0,-78 -102,-141 -229,-141 -127,0 -229,63 -229,141 0,78 102,142 229,142z"/>
  <path class="fil7" d="M25875 13707c127,0 230,-63 230,-141 0,-78 -103,-141 -230,-141 -126,0 -229,63 -229,141 0,78 103,141 229,141z"/>
  <path class="fil7" d="M26257 14589c126,0 229,-63 229,-141 0,-78 -103,-141 -229,-141 -127,0 -230,63 -230,141 0,78 103,141 230,141z"/>
  <path class="fil266" d="M6110 3544l7225 0c194,0 352,159 352,352l0 5935c0,194 -158,352 -352,352l-7225 0c-193,0 -352,-158 -352,-352l0 -5935c0,-193 159,-352 352,-352z"/>
  <path class="fil267" d="M14176 3545l1869 0c61,0 111,50 111,111l0 4044c0,61 -50,111 -111,111l-1869 0c-61,0 -111,-50 -111,-111l0 -4044c0,-61 50,-111 111,-111z"/>
  <path class="fil267" d="M14176 10183l1869 0c61,0 111,-50 111,-111l0 -1951c0,-61 -50,-111 -111,-111l-1869 0c-61,0 -111,50 -111,111l0 1951c0,61 50,111 111,111z"/>
  <path class="fil268" d="M6683 4067l411 0c90,0 163,73 163,162l0 1c0,89 -73,162 -163,162l-411 0c-90,0 -163,-73 -163,-162l0 -1c0,-89 73,-162 163,-162z"/>
  <path class="fil269" d="M7785 4060l5120 0c89,0 162,73 162,162l0 0c0,90 -73,163 -162,163l-5120 0c-89,0 -162,-73 -162,-163l0 0c0,-89 73,-162 162,-162z"/>
  <path class="fil268" d="M6683 7797l411 0c90,0 163,73 163,162l0 0c0,89 -73,162 -163,162l-411 0c-90,0 -163,-73 -163,-162l0 0c0,-89 73,-162 163,-162z"/>
  <path class="fil269" d="M7785 7789l5120 0c89,0 162,74 162,163l0 0c0,89 -73,162 -162,162l-5120 0c-89,0 -162,-73 -162,-162l0 0c0,-89 73,-163 162,-163z"/>
  <path class="fil270" d="M7340 4803l164 0c89,0 162,73 162,162l0 0c0,90 -73,163 -162,163l-164 0c-89,0 -162,-73 -162,-163l0 0c0,-89 73,-162 162,-162z"/>
  <path class="fil271" d="M8195 4796l4362 0c89,0 162,73 162,162l0 0c0,90 -73,163 -162,163l-4362 0c-89,0 -162,-73 -162,-163l0 0c0,-89 73,-162 162,-162z"/>
  <path class="fil270" d="M7340 5538l164 0c89,0 162,73 162,163l0 0c0,89 -73,162 -162,162l-164 0c-89,0 -162,-73 -162,-162l0 0c0,-90 73,-163 162,-163z"/>
  <path class="fil271" d="M8195 5531l4362 0c89,0 162,73 162,163l0 0c0,89 -73,162 -162,162l-4362 0c-89,0 -162,-73 -162,-162l0 0c0,-90 73,-163 162,-163z"/>
  <path class="fil270" d="M7340 6259l164 0c89,0 162,73 162,163l0 0c0,89 -73,162 -162,162l-164 0c-89,0 -162,-73 -162,-162l0 0c0,-90 73,-163 162,-163z"/>
  <path class="fil271" d="M8195 6252l4362 0c89,0 162,73 162,163l0 0c0,89 -73,162 -162,162l-4362 0c-89,0 -162,-73 -162,-162l0 0c0,-90 73,-163 162,-163z"/>
  <path class="fil270" d="M7340 7065l164 0c89,0 162,73 162,163l0 0c0,89 -73,162 -162,162l-164 0c-89,0 -162,-73 -162,-162l0 0c0,-90 73,-163 162,-163z"/>
  <path class="fil271" d="M8195 7058l4362 0c89,0 162,73 162,163l0 0c0,89 -73,162 -162,162l-4362 0c-89,0 -162,-73 -162,-162l0 0c0,-90 73,-163 162,-163z"/>
  <path class="fil270" d="M7340 8535l164 0c89,0 162,73 162,162l0 0c0,90 -73,163 -162,163l-164 0c-89,0 -162,-73 -162,-163l0 0c0,-89 73,-162 162,-162z"/>
  <path class="fil271" d="M8195 8528l4362 0c89,0 162,73 162,162l0 0c0,90 -73,163 -162,163l-4362 0c-89,0 -162,-73 -162,-163l0 0c0,-89 73,-162 162,-162z"/>
  <path class="fil270" d="M7340 9327l164 0c89,0 162,73 162,162l0 0c0,89 -73,162 -162,162l-164 0c-89,0 -162,-73 -162,-162l0 0c0,-89 73,-162 162,-162z"/>
  <path class="fil271" d="M8195 9320l4362 0c89,0 162,73 162,162l0 0c0,89 -73,162 -162,162l-4362 0c-89,0 -162,-73 -162,-162l0 0c0,-89 73,-162 162,-162z"/>
  <path class="fil272" d="M14502 3762l1241 0c104,0 188,84 188,188l0 1503c0,103 -84,187 -188,187l-1241 0c-104,0 -188,-84 -188,-187l0 -1503c0,-104 84,-188 188,-188z"/>
  <path class="fil273" d="M14490 8232l1241 0c104,0 188,85 188,188l0 1353c0,103 -84,188 -188,188l-1241 0c-104,0 -188,-85 -188,-188l0 -1353c0,-103 84,-188 188,-188z"/>
  <path class="fil274" d="M14493 5930l1246 0c102,0 186,83 186,185l0 1226c0,102 -84,185 -186,185l-1246 0c-102,0 -185,-83 -185,-185l0 -1226c0,-102 83,-185 185,-185z"/>
  <path class="fil268" d="M14529 3820l1187 0c89,0 162,73 162,162l0 0c0,90 -73,163 -162,163l-1187 0c-89,0 -162,-73 -162,-163l0 0c0,-89 73,-162 162,-162z"/>
  <path class="fil268" d="M14512 5981l1200 0c88,0 159,71 159,159l0 0c0,87 -71,159 -159,159l-1200 0c-88,0 -159,-72 -159,-159l0 0c0,-88 71,-159 159,-159z"/>
  <path class="fil268" d="M14367 9745l0 -1300c0,-89 73,-162 162,-162l0 0c90,0 163,73 163,162l0 1300c0,89 -73,162 -163,162l0 0c-89,0 -162,-73 -162,-162z"/>
  <polygon class="fil2 str0" points="5309,3071 18255,3071 18255,12984 5309,12984 "/>
  <polygon class="fil275" points="19214,14525 19064,14621 18807,14217 18507,14408 18447,13324 19405,13835 19106,14026 19363,14430 "/>
 </g>
</svg>
