<?xml version="1.0" encoding="UTF-8"?>
<!DOCTYPE svg PUBLIC "-//W3C//DTD SVG 1.1//EN" "http://www.w3.org/Graphics/SVG/1.1/DTD/svg11.dtd">
<!-- Creator: CorelDRAW X7 -->
<svg xmlns="http://www.w3.org/2000/svg" xml:space="preserve" width="287.59mm" height="84.64mm" version="1.1" style="shape-rendering:geometricPrecision; text-rendering:geometricPrecision; image-rendering:optimizeQuality; fill-rule:evenodd; clip-rule:evenodd"
viewBox="0 0 28759 8464"
 xmlns:xlink="http://www.w3.org/1999/xlink">
 <defs>
  <style type="text/css">
   <![CDATA[
    .str0 {stroke:black;stroke-width:70.55}
    .fil3 {fill:none}
    .fil5 {fill:none;fill-rule:nonzero}
    .fil8 {fill:black}
    .fil2 {fill:#FEFEFE}
    .fil10 {fill:#FF6600}
    .fil1 {fill:white}
    .fil7 {fill:black;fill-rule:nonzero}
    .fil4 {fill:#2B2A29;fill-rule:nonzero}
    .fil9 {fill:#FEFEFE;fill-rule:nonzero}
    .fil6 {fill:white;fill-rule:nonzero}
    .fil0 {fill:url(#id0)}
   ]]>
  </style>
  <linearGradient id="id0" gradientUnits="userSpaceOnUse" x1="-0" y1="4232" x2="28759" y2="4232">
   <stop offset="0" style="stop-opacity:1; stop-color:#636363"/>
   <stop offset="0.490196" style="stop-opacity:1; stop-color:#B1A5A5"/>
   <stop offset="0.490196" style="stop-opacity:1; stop-color:#B1A5A5"/>
   <stop offset="0.819608" style="stop-opacity:1; stop-color:#B1A5A5"/>
   <stop offset="1" style="stop-opacity:1; stop-color:#FFE8E8"/>
  </linearGradient>
 </defs>
 <g id="Слой_x0020_1">
  <metadata id="CorelCorpID_0Corel-Layer"/>
  <polygon class="fil0" points="28759,0 28759,8464 0,8464 0,0 "/>
  <g id="_804121888">
   <path id="_1" class="fil1" d="M22766 8484l-96 -1055 3069 -1623 3020 -560 0 1756c0,815 -667,1482 -1482,1482l-4511 0z"/>
   <polygon class="fil2" points="24065,7220 24093,6872 21808,6897 22247,7429 22533,7702 23835,7546 "/>
   <polyline class="fil3 str0" points="24065,7220 24093,6872 21808,6897 22247,7429 22533,7702 23835,7546 24065,7220 "/>
   <polygon class="fil2" points="21626,8484 21558,7657 20418,4457 20933,3610 22108,4237 21548,5507 21937,8484 "/>
   <polyline class="fil3 str0" points="21626,8484 21558,7657 20418,4457 20933,3610 22108,4237 21548,5507 21937,8484 "/>
   <polygon class="fil2" points="27570,8032 27161,8484 25447,8484 25034,7209 25419,7309 25862,8406 26752,8419 27009,8168 "/>
   <path class="fil3 str0" d="M27570 8032l-409 452m-1714 0l-413 -1275 385 100 443 1097 890 13 257 -251 561 -136"/>
   <polygon class="fil2" points="22599,8484 22533,7702 22875,7661 22918,7932 23497,7868 23480,7589 23835,7546 23861,8484 "/>
   <polyline class="fil3 str0" points="22599,8484 22533,7702 22875,7661 22918,7932 23497,7868 23480,7589 23835,7546 23861,8484 "/>
   <path class="fil4" d="M20052 6494c-1,3 -195,1301 -358,1746 -28,76 -65,158 -110,244l95 0c38,-75 69,-147 94,-214 167,-455 362,-1760 363,-1764l-84 -12z"/>
   <path class="fil5 str0" d="M20052 6494c-1,3 -195,1301 -358,1746 -28,76 -65,158 -110,244m95 0c38,-75 69,-147 94,-214 167,-455 362,-1760 363,-1764l-84 -12"/>
   <path class="fil4" d="M19502 5178l-1755 3059 -2 5c0,1 -27,95 -47,242l85 0c17,-114 36,-193 42,-214l1750 -3050 -73 -42z"/>
   <path class="fil5 str0" d="M19502 5178l-1755 3059 -2 5c0,1 -27,95 -47,242m85 0c17,-114 36,-193 42,-214l1750 -3050 -73 -42"/>
   <path class="fil2" d="M16643 7494c-942,0 -1796,378 -2419,990l1551 0c272,-96 564,-148 868,-148 304,0 596,52 868,148l1551 0c-623,-612 -1476,-990 -2419,-990z"/>
   <path class="fil3 str0" d="M16643 7494c-942,0 -1796,378 -2419,990m4838 0c-623,-612 -1476,-990 -2419,-990m0 842c-304,0 -596,52 -868,148m1736 0c-272,-96 -564,-148 -868,-148"/>
   <path class="fil2" d="M25518 6123c2,100 -15,164 -74,207l-948 692c-95,78 -226,132 -315,128l-1264 -45c-161,-5 -347,-121 -399,-274l-818 -2407c-101,-312 -26,-396 135,-607 86,-112 229,-208 365,-191l488 60c88,11 178,48 247,104l323 283 2268 1881 -8 169z"/>
   <path class="fil3 str0" d="M25518 6123c2,100 -15,164 -74,207l-948 692c-95,78 -226,132 -315,128l-1264 -45c-161,-5 -347,-121 -399,-274l-818 -2407c-101,-312 -26,-396 135,-607 86,-112 229,-208 365,-191l488 60c88,11 178,48 247,104l323 283 2268 1881 -8 169"/>
   <path class="fil2" d="M22452 2485c-120,-5 -240,-10 -360,-15 -12,-81 -126,-305 -205,-330 -54,-18 -228,-23 -228,-23 0,0 -110,35 -125,175 -6,56 -710,-155 -948,40 -410,337 -448,1143 -446,1277 1,30 1028,-159 1042,-79 9,51 356,-418 401,-470 98,-110 278,-104 379,-118 198,-27 197,-30 179,-133 70,15 273,54 276,31l35 -355z"/>
   <path class="fil3 str0" d="M22452 2485c-120,-5 -240,-10 -360,-15 -12,-81 -126,-305 -205,-330 -54,-18 -228,-23 -228,-23 0,0 -110,35 -125,175 -6,56 -710,-155 -948,40 -410,337 -448,1143 -446,1277 1,30 1028,-159 1042,-79 9,51 356,-418 401,-470 98,-110 278,-104 379,-118 198,-27 197,-30 179,-133 70,15 273,54 276,31l35 -355"/>
   <path class="fil2" d="M28759 5419l-2516 709 -735 -60 -2055 -1575c-122,-93 -195,-337 -195,-420 1,-100 210,-58 300,-15l1245 600c649,313 1428,313 2145,255l1811 -144 0 650z"/>
   <path class="fil3 str0" d="M28759 5419l-2516 709 -735 -60 -2055 -1575c-122,-93 -195,-337 -195,-420 1,-100 210,-58 300,-15l1245 600c649,313 1428,313 2145,255l1811 -144"/>
   <path class="fil2" d="M21177 8484c-8,-16 -16,-33 -25,-51 -131,-265 -336,-745 -621,-1220 -285,-474 -650,-942 -1285,-1270 -636,-327 -1543,-514 -2224,-522 -681,-7 -1136,165 -1380,294 -244,129 -277,216 -344,268 -67,52 -167,70 -264,77 -96,7 -189,4 -242,-9 -53,-14 -67,-37 -43,-91 24,-54 86,-139 448,-358 362,-219 1024,-573 1754,-690 730,-117 1526,3 2195,243 669,241 1210,601 1578,1205 369,604 566,1451 649,1897 17,92 29,166 38,227l-234 0z"/>
   <path class="fil3 str0" d="M21177 8484c-8,-16 -16,-33 -25,-51 -131,-265 -336,-745 -621,-1220 -285,-474 -650,-942 -1285,-1270 -636,-327 -1543,-514 -2224,-522 -681,-7 -1136,165 -1380,294 -244,129 -277,216 -344,268 -67,52 -167,70 -264,77 -96,7 -189,4 -242,-9 -53,-14 -67,-37 -43,-91 24,-54 86,-139 448,-358 362,-219 1024,-573 1754,-690 730,-117 1526,3 2195,243 669,241 1210,601 1578,1205 369,604 566,1451 649,1897 17,92 29,166 38,227"/>
   <polygon class="fil2" points="18731,8484 20282,5594 20138,5505 21101,3713 21039,3507 20754,3500 19787,5303 19704,5265 17976,8484 "/>
   <polyline class="fil3 str0" points="18731,8484 20282,5594 20138,5505 21101,3713 21039,3507 20754,3500 19787,5303 19704,5265 17976,8484 "/>
   <path class="fil2" d="M19901 4837c-18,-10 -64,2 -78,28l-161 299c-16,30 -17,54 30,79l523 279 431 -285 -745 -400z"/>
   <path class="fil3 str0" d="M19901 4837c-18,-10 -64,2 -78,28l-161 299c-16,30 -17,54 30,79l523 279 431 -285 -745 -400"/>
   <polygon class="fil2" points="21354,3374 21155,3730 20710,3491 20903,3131 "/>
   <polyline class="fil3 str0" points="21354,3374 21155,3730 20710,3491 20903,3131 21354,3374 "/>
   <polygon class="fil2" points="22791,3506 22076,3449 22071,3633 22785,3690 "/>
   <polyline class="fil3 str0" points="22791,3506 22076,3449 22071,3633 22785,3690 22791,3506 "/>
   <path class="fil2" d="M20800 7259c54,293 28,565 34,896 4,185 76,211 186,192 235,-41 576,-146 725,-323l1515 -1800c73,-86 111,-279 15,-337l-232 -143c-63,-39 -136,-75 -210,-75l-874 4c-112,0 -115,-85 -86,-124l472 -630c90,-119 111,-321 27,-401 -86,-82 -210,-100 -285,-109 -132,-16 -267,-32 -377,42l-1637 1098 -255 210c-147,121 -230,432 -8,570l773 480c141,88 187,286 217,450zm550 668c-46,0 -83,37 -83,82 0,46 37,83 83,83 45,0 82,-37 82,-83 0,-45 -37,-82 -82,-82zm750 -3344c-46,0 -83,37 -83,83 0,45 37,82 83,82 45,0 82,-37 82,-82 0,-46 -37,-83 -82,-83zm697 1380c-45,0 -82,37 -82,83 0,45 37,82 82,82 46,0 83,-37 83,-82 0,-46 -37,-83 -83,-83z"/>
   <path class="fil3 str0" d="M20800 7259c54,293 28,565 34,896 4,185 76,211 186,192 235,-41 576,-146 725,-323l1515 -1800c73,-86 111,-279 15,-337l-232 -143c-63,-39 -136,-75 -210,-75l-874 4c-112,0 -115,-85 -86,-124l472 -630c90,-119 111,-321 27,-401 -86,-82 -210,-100 -285,-109 -132,-16 -267,-32 -377,42l-1637 1098 -255 210c-147,121 -230,432 -8,570l773 480c141,88 187,286 217,450m550 668c-46,0 -83,37 -83,82 0,46 37,83 83,83 45,0 82,-37 82,-83 0,-45 -37,-82 -82,-82m750 -3344c-46,0 -83,37 -83,83 0,45 37,82 83,82 45,0 82,-37 82,-82 0,-46 -37,-83 -82,-83m697 1380c-45,0 -82,37 -82,83 0,45 37,82 82,82 46,0 83,-37 83,-82 0,-46 -37,-83 -83,-83"/>
   <path class="fil3 str0" d="M18506 5654c38,-60 143,-139 228,-164 85,-25 24,-45 24,-45 0,0 -1064,-523 -2659,-108"/>
   <path class="fil2" d="M18916 3171c-32,24 -41,92 -12,119 44,41 179,-25 177,35l-23 1052 -53 9c-21,4 -11,45 0,62 111,183 210,379 360,532 30,31 81,-37 124,-38 63,-1 135,69 186,32 186,-131 342,-307 467,-496 34,-51 -7,-123 -17,-183 -9,-53 -29,-103 -42,-154 -16,-65 -78,-136 -47,-195 36,-69 190,-31 207,-107l106 -461 77 -473c10,-62 30,-128 71,-177l455 -544c44,-52 9,-195 -59,-195l-437 0c-49,0 -99,25 -133,59 -419,416 -722,630 -1407,1123z"/>
   <path class="fil3 str0" d="M18916 3171c-32,24 -41,92 -12,119 44,41 179,-25 177,35l-23 1052 -53 9c-21,4 -11,45 0,62 111,183 210,379 360,532 30,31 81,-37 124,-38 63,-1 135,69 186,32 186,-131 342,-307 467,-496 34,-51 -7,-123 -17,-183 -9,-53 -29,-103 -42,-154 -16,-65 -78,-136 -47,-195 36,-69 190,-31 207,-107l106 -461 77 -473c10,-62 30,-128 71,-177l455 -544c44,-52 9,-195 -59,-195l-437 0c-49,0 -99,25 -133,59 -419,416 -722,630 -1407,1123"/>
   <polygon class="fil2" points="20002,3742 20014,3607 20189,3494 20335,3457 20754,3500 20758,3742 20754,3984 20335,4027 20189,3990 20014,3877 "/>
   <polyline class="fil3 str0" points="20002,3742 20014,3607 20189,3494 20335,3457 20754,3500 20758,3742 20754,3984 20335,4027 20189,3990 20014,3877 20002,3742 "/>
   <path class="fil2" d="M22017 1467l-130 -953c-7,-46 -112,-35 -135,5 -60,106 -57,244 -53,365 6,150 33,250 68,395 10,44 47,81 50,125 3,55 -48,135 -60,188 -18,71 -20,59 -29,131 -13,98 -11,238 -14,387l119 12c-2,-110 -12,-275 12,-414 7,-45 24,-92 37,-136 7,-26 18,-54 40,-70 26,-21 99,-2 95,-35z"/>
   <path class="fil3 str0" d="M22017 1467l-130 -953c-7,-46 -112,-35 -135,5 -60,106 -57,244 -53,365 6,150 33,250 68,395 10,44 47,81 50,125 3,55 -48,135 -60,188 -18,71 -20,59 -29,131 -13,98 -11,238 -14,387l119 12c-2,-110 -12,-275 12,-414 7,-45 24,-92 37,-136 7,-26 18,-54 40,-70 26,-21 99,-2 95,-35"/>
   <path class="fil3 str0" d="M22049 2350c-485,-109 -456,718 -43,638"/>
   <path class="fil2" d="M22417 2484c-104,0 -188,80 -188,178 0,98 84,178 188,178 103,0 187,-80 187,-178 0,-98 -84,-178 -187,-178z"/>
   <path class="fil3 str0" d="M22417 2484c-104,0 -188,80 -188,178 0,98 84,178 188,178 103,0 187,-80 187,-178 0,-98 -84,-178 -187,-178"/>
   <path class="fil3 str0" d="M22092 2470c-165,21 -133,375 49,339"/>
   <path class="fil3 str0" d="M26514 7839c478,-544 916,-1126 1434,-1631 167,-163 378,-297 604,-356l207 -55"/>
   <path class="fil2" d="M27219 8484l214 -237 -450 0 -241 237 477 0zm-1371 0l-442 -1096 -384 -100 396 1196 430 0z"/>
   <path class="fil3 str0" d="M27219 8484l214 -237 -450 0 -241 237m-894 0l-442 -1096 -384 -100 396 1196"/>
   <path class="fil2" d="M24837 7261l1081 220c297,60 654,431 764,619l223 384 122 0c-11,-14 -18,-32 -19,-52 -2,-50 37,-93 87,-94 50,-2 92,37 94,87 1,22 -6,43 -19,59l107 0c18,0 36,0 54,-1l1164 -1493c64,-82 131,-180 129,-285l-13 -1165 -2907 819c-42,12 -88,22 -123,49l-807 641c-58,46 -9,198 63,212zm3413 -973c50,-2 92,37 94,87 2,51 -37,93 -87,95 -50,1 -93,-38 -94,-88 -2,-50 37,-92 87,-94zm-1913 357c50,-2 92,37 94,87 2,50 -37,92 -87,94 -51,2 -93,-37 -95,-87 -1,-50 38,-93 88,-94z"/>
   <path class="fil3 str0" d="M24837 7261l1081 220c297,60 654,431 764,619l223 384m426 -1l1164 -1493c64,-82 131,-180 129,-285l-13 -1165 -2907 819c-42,12 -88,22 -123,49l-807 641c-58,46 -9,198 63,212m3413 -973c50,-2 92,37 94,87 2,51 -37,93 -87,95 -50,1 -93,-38 -94,-88 -2,-50 37,-92 87,-94m-1913 357c50,-2 92,37 94,87 2,50 -37,92 -87,94 -51,2 -93,-37 -95,-87 -1,-50 38,-93 88,-94m758 1693c50,-2 92,37 94,87 1,22 -6,43 -19,59m-143 0c-11,-14 -18,-32 -19,-52 -2,-50 37,-93 87,-94"/>
  </g>
  <g id="_804121120">
   <path class="fil6" d="M2263 6225c316,253 733,423 1283,484l2 0c550,-59 969,-228 1286,-480 317,-251 534,-587 679,-980 145,-393 219,-843 249,-1324 30,-479 17,-989 -10,-1504 -143,-31 -1777,-394 -2197,-630 -421,234 -2056,592 -2199,623 -27,515 -40,1025 -12,1504 29,481 101,931 244,1325 143,393 358,729 675,982z"/>
   <path class="fil7" d="M3565 6488c-38,-1 -76,-3 -114,-7 -401,-39 -864,-248 -1223,-652 -359,-403 -615,-1000 -601,-1813 1,-104 8,-211 18,-322l1 -12 3813 6 1 12c20,168 27,327 25,480 -20,764 -267,1320 -597,1658 -339,383 -771,596 -1154,641 -57,7 -114,10 -169,9z"/>
   <path class="fil7" d="M3540 6791c-567,-64 -1000,-240 -1328,-502 -329,-263 -552,-612 -700,-1018 -147,-402 -220,-860 -249,-1348 -29,-486 -15,-1003 13,-1523l2 -52 52 -11c38,-9 1778,-384 2191,-621l0 0 34 -19 34 20 0 -1c412,238 2150,619 2189,628l52 11 2 52c28,521 41,1037 11,1523 -31,489 -105,946 -253,1347 -151,407 -376,754 -706,1016 -329,261 -763,436 -1330,498l-3 0 -8 0 -3 0zm-1277 -566c316,253 733,423 1283,484l2 0c550,-59 969,-228 1286,-480 317,-251 534,-587 679,-980 145,-393 219,-843 249,-1324 30,-479 17,-989 -10,-1504 -143,-31 -1777,-394 -2197,-630 -421,234 -2056,592 -2199,623 -27,515 -40,1025 -12,1504 29,481 101,931 244,1325 143,393 358,729 675,982z"/>
   <path class="fil8" d="M1561 2510l3985 7c66,0 119,54 119,119l-1 717c0,65 -54,119 -119,119l-3985 -7c-66,0 -120,-54 -119,-119l1 -716c0,-66 54,-120 119,-120z"/>
   <path class="fil7" d="M1561 2497l3985 6c37,0 70,15 94,40 24,24 39,57 39,94l-1 716c0,36 -15,69 -39,94 -25,24 -58,38 -94,38l-3985 -6c-37,0 -70,-15 -94,-39 -24,-24 -39,-58 -39,-94l1 -716c0,-37 15,-70 39,-94l0 0c25,-24 58,-39 94,-39zm3985 33l-3985 -6c-29,0 -55,12 -74,31l0 0c-20,19 -32,46 -32,75l-1 716c0,29 12,55 31,75 19,19 46,31 75,31l3985 6c29,0 55,-12 74,-31 20,-19 32,-45 32,-74l1 -717c0,-29 -12,-55 -31,-74 -19,-20 -46,-31 -75,-32z"/>
   <path class="fil9" d="M2534 5861l0 0c-41,-42 -45,-87 -30,-130 12,-38 41,-74 68,-102 207,-204 414,-407 621,-610l348 353c-203,206 -405,414 -610,618 -27,28 -63,56 -102,68 -43,14 -88,10 -129,-30l-1 -1 0 0 -165 -166 0 0zm1902 175l0 1c-41,40 -87,44 -130,30 -38,-13 -74,-41 -102,-69 -373,-374 -743,-755 -1114,-1133l-34 34 -107 -117 55 -55 -350 -238 9 -20c26,-67 21,-137 1,-202 -35,-120 -117,-219 -138,-242l-17 -19 69 -69 19 17c23,21 122,103 241,139 65,20 136,26 202,-1l21 -8 237 351 54 -56 117 109 -34 33c377,372 756,743 1130,1118 28,28 56,64 68,102 14,43 10,89 -30,129l-167 166zm-193 -76c0,0 -2997,-3029 0,0zm-1283 -1565l0 0c9,-9 14,-20 15,-30 0,-11 -6,-24 -18,-37l0 0 0 0 0 0c-12,-12 -24,-17 -34,-16 -11,0 -21,6 -30,15l0 0 0 0c-9,9 -15,19 -15,29 0,10 5,21 17,34l0 0 0 0c13,12 25,18 35,18 11,1 21,-4 30,-13zm38 38l0 0c-19,20 -44,31 -71,29 -23,-1 -47,-12 -70,-34l0 0c-24,-24 -34,-49 -33,-74 1,-24 12,-46 30,-65 0,0 0,0 0,0 19,-18 41,-30 66,-31 25,-2 51,8 75,32 0,0 0,0 0,0 24,24 34,50 34,75 -1,26 -12,50 -31,68zm611 174l96 -92 -33 -34 117 -108 42 43c68,-304 184,-311 447,-328 90,-6 198,-13 329,-35l132 -22 -113 72c-239,151 -230,266 -223,359 9,112 16,199 -256,271l44 44 -108 117 -33 -34 -112 111 -349 -345 20 -19z"/>
   <path class="fil9" d="M1836 2849l-1 278c0,62 -10,109 -30,141 -20,32 -50,48 -89,48 -39,0 -68,-16 -88,-48 -20,-32 -30,-79 -30,-141l0 -278c0,-62 11,-109 31,-141 20,-32 49,-48 88,-48 39,0 69,16 89,48 20,32 30,79 30,141zm-55 -1c0,-42 -5,-74 -15,-94 -10,-20 -27,-30 -49,-30 -22,0 -38,10 -49,30 -10,20 -15,51 -15,94l-1 280c0,43 5,74 15,94 11,19 27,29 49,29 23,0 39,-10 49,-29 11,-20 16,-51 16,-94l0 -280zm132 296l1 -413 -43 0 0 -59 138 1 0 58 -42 0 -1 411c0,38 5,66 14,83 9,18 24,27 44,27 20,0 35,-9 44,-26 9,-18 14,-46 14,-84l0 -411 -41 0 0 -58 137 0 0 58 -42 0 -1 414c0,56 -9,98 -28,128 -19,29 -47,44 -83,44 -36,0 -64,-15 -83,-45 -19,-29 -28,-72 -28,-128zm346 160l0 -57 55 0 1 -514 -58 0 -1 113 -46 0 0 -173 265 0 -1 174 -46 0 0 -113 -59 0 -1 513 55 0 0 57 -164 0zm343 -570l-1 510 14 0c40,0 69,-13 86,-40 17,-28 25,-73 25,-136l1 -166c0,-61 -8,-105 -24,-130 -16,-25 -44,-38 -83,-38l-18 0zm-95 -60l108 0c62,0 105,17 129,53 25,35 37,96 37,184l0 147c-1,87 -12,150 -36,188 -24,39 -63,59 -116,59l-124 -1 1 -57 42 0 1 -515 -43 0 1 -58zm552 177l-1 278c0,62 -10,109 -30,141 -20,32 -50,48 -89,48 -38,0 -68,-16 -88,-48 -20,-32 -30,-79 -30,-141l1 -278c0,-62 10,-109 30,-141 20,-32 50,-48 89,-48 38,0 68,16 88,48 20,32 30,79 30,141zm-54 -1c0,-42 -6,-74 -16,-94 -10,-20 -26,-30 -49,-30 -22,0 -38,10 -48,30 -11,20 -16,51 -16,94l-1 280c0,43 5,74 16,94 10,19 26,29 49,29 22,0 38,-10 48,-29 11,-20 16,-51 16,-94l1 -280zm331 2l0 278c-1,62 -11,109 -31,141 -20,32 -50,48 -88,48 -39,-1 -69,-17 -89,-49 -20,-32 -30,-79 -30,-140l1 -279c0,-62 10,-109 30,-140 20,-32 50,-48 89,-48 38,0 68,16 88,48 20,32 30,79 30,141zm-54 -1c0,-43 -5,-74 -16,-94 -10,-20 -26,-30 -48,-30 -23,0 -39,10 -49,30 -11,20 -16,51 -16,93l0 281c-1,42 5,74 15,93 10,20 26,30 49,30 22,0 38,-10 49,-30 10,-20 15,-51 15,-93l1 -280zm185 95l55 0c21,0 37,-7 47,-19 10,-13 15,-32 15,-59l0 -60c0,-27 -4,-46 -13,-57 -9,-10 -26,-16 -49,-16l-55 0 0 211zm-96 360l0 -58 42 0 1 -515 -42 0 0 -58 146 0c44,0 75,11 92,32 18,21 26,58 26,109l0 43c0,38 -5,65 -15,82 -10,17 -28,29 -54,35 26,4 44,13 54,27 10,13 15,37 15,69l0 177 41 0 0 57 -92 0 0 -232c0,-26 -4,-44 -12,-53 -8,-10 -23,-15 -45,-15l-61 0 -1 243 42 0 0 57 -137 0zm541 -570l-1 510 15 1c39,0 68,-14 85,-41 17,-28 25,-73 26,-136l0 -166c0,-61 -8,-104 -24,-130 -16,-25 -44,-38 -83,-38l-18 0zm-95 -60l108 0c62,0 105,18 130,53 24,35 36,97 36,185l0 146c0,87 -12,150 -36,189 -24,38 -62,58 -116,58l-123 0 0 -58 42 0 1 -515 -42 0 0 -58zm310 631l0 -57 42 0 1 -515 -42 0 0 -59 272 1 0 168 -46 0 0 -108 -131 0 0 200 109 0 0 66 -109 -1 -1 245 133 0 0 -123 47 0 0 184 -275 -1zm545 -198l0 15c0,65 -10,113 -30,147 -20,33 -49,50 -86,50 -38,0 -67,-17 -86,-51 -20,-33 -29,-82 -29,-146l0 -257c0,-65 10,-115 28,-150 19,-35 46,-52 81,-52 15,0 28,4 41,12 13,8 24,19 33,34l0 -34 38 0 -1 184 -41 0 -1 -15c-2,-41 -9,-71 -18,-90 -9,-18 -23,-27 -41,-27 -22,0 -39,10 -49,30 -10,20 -16,51 -16,94l0 280c0,42 5,74 15,93 10,20 27,30 49,30 21,0 37,-11 48,-32 11,-21 16,-52 17,-93l0 -22 48 0zm134 -56l95 1 -46 -286 -49 285zm-114 255l0 -57 33 0 93 -515 -41 0 0 -59 160 0 0 59 -42 0 92 515 29 0 0 58 -124 -1 0 -57 43 0 -24 -138 -115 0 -25 138 42 0 0 57 -121 0zm345 1l0 -58 43 0 1 -515 -43 0 0 -58 138 0 0 58 -42 0 -1 512 126 1 0 -124 48 1 -1 183 -269 0zm303 0l0 -191 44 0c3,45 12,79 25,103 14,24 31,36 53,36 16,0 30,-7 40,-23 10,-15 16,-36 16,-61 0,-18 -4,-36 -11,-53 -7,-17 -18,-35 -33,-54l-71 -88c-20,-25 -35,-51 -44,-77 -10,-27 -15,-55 -15,-85 0,-44 9,-80 27,-108 17,-28 39,-42 66,-42 16,0 30,5 44,15 13,10 25,25 35,44l0 -47 39 1 -1 161 -41 0c-4,-36 -13,-62 -25,-81 -12,-19 -27,-28 -45,-28 -15,0 -27,7 -37,22 -10,14 -14,32 -15,53 0,16 4,32 10,48 7,16 17,33 30,49l77 97c21,26 36,53 46,80 10,27 14,56 14,88 0,45 -10,82 -30,111 -20,29 -45,43 -76,43 -17,0 -32,-6 -46,-17 -14,-12 -27,-30 -39,-54l0 58 -37 0z"/>
   <path class="fil8" d="M3947 4486c74,-181 70,-232 399,-313 -175,52 -314,91 -399,313z"/>
   <path class="fil7" d="M2960 4395l0 0c9,-9 14,-20 15,-30 0,-11 -6,-24 -18,-37l0 0 0 0 0 0c-12,-12 -24,-17 -34,-16 -11,0 -21,6 -30,15l0 0 0 0c-9,9 -15,19 -15,29 0,10 5,21 17,34l0 0 0 0c13,12 25,18 35,18 11,1 21,-4 30,-13zm38 38l0 0c-19,20 -44,31 -71,29 -23,-1 -47,-12 -70,-34l0 0c-24,-24 -34,-49 -33,-74 1,-24 12,-46 30,-65 0,0 0,0 0,0 19,-18 41,-30 66,-31 25,-2 51,8 75,32 0,0 0,0 0,0 24,24 34,50 34,75 -1,26 -12,50 -31,68z"/>
  </g>
  <path class="fil10" d="M10247 830l7378 0c352,0 641,289 641,642l0 1329c0,353 -289,641 -641,641l-7378 0c-353,0 -641,-288 -641,-641l0 -1329c0,-353 288,-642 641,-642z"/>
  <path class="fil10" d="M7034 5061l6466 0c353,0 642,289 642,642l0 1330c0,353 -289,642 -642,642l-6466 0c-353,0 -642,-289 -642,-642l0 -1330c0,-353 289,-642 642,-642z"/>
  <path class="fil6" d="M11146 1681l-75 451c-13,77 -30,133 -51,170 -21,37 -56,67 -104,89 -49,23 -107,35 -173,35 -87,0 -155,-19 -203,-56 -48,-37 -73,-90 -73,-158 0,-24 3,-50 8,-80l76 -451 224 0 -76 451c-4,25 -6,43 -6,55 0,23 9,40 27,53 18,13 39,19 65,19 32,0 56,-8 73,-24 16,-16 28,-47 36,-95l77 -459 175 0zm83 191l189 0 -14 88c15,-36 39,-63 72,-79 33,-17 68,-25 105,-25 46,0 83,12 112,36 28,25 43,57 43,97 0,15 -2,33 -6,55l-62 370 -207 0 55 -326c4,-21 6,-35 6,-41 0,-31 -17,-46 -49,-46 -43,0 -69,29 -79,87l-54 326 -202 0 91 -542zm888 -208l-27 160 -210 0 26 -160 211 0zm-35 208l-90 542 -211 0 91 -542 210 0zm523 715l-206 0 41 -248c-40,59 -91,89 -152,89 -51,0 -92,-20 -124,-61 -32,-40 -48,-94 -48,-161 0,-93 27,-174 81,-243 54,-69 125,-104 211,-104 79,0 134,32 165,95l63 -82 105 0c-17,35 -31,86 -42,151l-94 564zm-120 -511c1,-11 2,-20 2,-28 0,-22 -5,-38 -16,-50 -11,-12 -25,-18 -42,-18 -37,0 -63,29 -79,87 -16,57 -24,108 -24,152 0,53 19,80 56,80 43,0 70,-30 80,-90l23 -133zm887 -204l-90 542 -195 0 17 -100c-43,76 -104,115 -180,115 -47,0 -83,-13 -109,-38 -26,-25 -39,-56 -39,-93 0,-16 3,-45 10,-87l57 -339 208 0 -52 311c-5,29 -7,46 -7,53 0,27 12,40 37,40 47,0 78,-45 93,-135l45 -269 205 0zm620 312l-373 0c-2,14 -3,25 -3,33 0,23 8,42 23,55 15,14 34,20 58,20 44,0 75,-23 93,-69l183 30c-24,53 -62,96 -115,129 -53,32 -112,49 -176,49 -81,0 -147,-23 -197,-69 -50,-46 -75,-109 -75,-188 0,-86 29,-161 89,-222 59,-62 137,-93 233,-93 81,0 145,24 194,72 48,48 72,112 72,191 0,18 -2,38 -6,62zm-196 -105c2,-11 3,-20 3,-26 0,-19 -6,-36 -18,-50 -12,-15 -29,-22 -50,-22 -23,0 -43,9 -62,26 -18,18 -30,42 -34,72l161 0zm1173 -398l-122 733 -194 0 12 -79c-44,64 -97,96 -160,96 -49,0 -91,-19 -126,-58 -36,-39 -53,-94 -53,-167 0,-89 24,-170 74,-242 49,-72 112,-108 189,-108 66,0 110,26 133,77l41 -252 206 0zm-270 383c1,-6 1,-12 1,-18 0,-16 -5,-29 -16,-40 -11,-11 -24,-16 -39,-16 -37,0 -64,29 -80,86 -17,57 -25,104 -25,142 0,49 19,74 58,74 38,0 63,-24 76,-74l25 -154zm857 120l-373 0c-2,14 -3,25 -3,33 0,23 7,42 23,55 15,14 34,20 57,20 44,0 76,-23 94,-69l182 30c-23,53 -62,96 -114,129 -53,32 -112,49 -176,49 -81,0 -147,-23 -197,-69 -51,-46 -76,-109 -76,-188 0,-86 30,-161 89,-222 60,-62 137,-93 233,-93 82,0 146,24 194,72 49,48 73,112 73,191 0,18 -2,38 -6,62zm-196 -105c2,-11 3,-20 3,-26 0,-19 -6,-36 -18,-50 -12,-15 -29,-22 -50,-22 -23,0 -44,9 -62,26 -19,18 -30,42 -34,72l161 0zm781 -81l-159 35c-12,-35 -46,-53 -100,-53 -38,0 -58,11 -58,32 0,19 19,32 56,38 75,13 128,27 159,43 30,15 53,35 69,59 16,23 23,51 23,81 0,54 -22,100 -68,138 -46,37 -115,56 -208,56 -69,0 -129,-14 -181,-41 -51,-27 -83,-68 -96,-122l169 -24c14,39 52,58 114,58 25,0 43,-4 55,-11 11,-6 17,-15 17,-24 0,-8 -4,-14 -11,-18 -8,-5 -28,-10 -60,-17 -64,-14 -109,-27 -136,-38 -26,-11 -49,-29 -68,-54 -19,-25 -28,-53 -28,-86 0,-56 22,-101 66,-137 44,-36 103,-54 178,-54 69,0 127,13 175,40 49,26 79,59 92,99zm371 -334l-27 160 -210 0 26 -160 211 0zm-35 208l-91 542 -210 0 90 -542 211 0zm645 -154l-13 136c-22,-3 -38,-4 -49,-4 -40,0 -67,15 -81,43 56,34 83,77 83,130 0,46 -18,87 -54,123 -36,36 -102,54 -199,54 -20,0 -37,-1 -50,-2 -20,-2 -33,-3 -41,-3 -13,0 -24,3 -32,11 -9,8 -13,16 -13,26 0,9 3,16 9,21 5,5 12,8 19,9 8,1 40,2 97,4 62,2 103,4 121,7 18,2 39,9 61,21 22,12 40,28 52,50 13,21 19,45 19,72 0,50 -22,95 -67,133 -46,38 -131,57 -257,57 -190,0 -285,-44 -285,-131 0,-46 32,-81 97,-105 -35,-23 -52,-52 -52,-86 0,-60 44,-103 132,-128 -51,-28 -76,-69 -76,-121 0,-48 21,-89 62,-124 42,-34 112,-52 210,-52 30,0 58,3 84,8 16,-101 71,-152 167,-152 15,0 33,1 56,3zm-322 384c23,0 41,-8 54,-24 13,-16 19,-34 19,-55 0,-40 -20,-59 -59,-59 -24,0 -42,8 -55,24 -13,17 -19,36 -19,59 0,17 6,31 17,41 11,9 26,14 43,14zm-157 312c-20,13 -31,25 -31,38 0,27 45,41 134,41 44,0 76,-3 96,-9 20,-5 30,-16 30,-32 0,-11 -5,-18 -14,-21 -9,-3 -29,-6 -61,-7 -90,-4 -141,-7 -154,-10zm557 -542l189 0 -14 88c15,-36 39,-63 72,-79 33,-17 68,-25 105,-25 46,0 83,12 112,36 28,25 43,57 43,97 0,15 -2,33 -6,55l-62 370 -206 0 54 -326c4,-21 6,-35 6,-41 0,-31 -17,-46 -49,-46 -43,0 -69,29 -79,87l-54 326 -202 0 91 -542z"/>
  <path class="fil6" d="M7476 6647l122 -735 303 0c55,0 101,5 136,15 35,10 64,30 88,61 24,30 36,66 36,107 0,45 -14,83 -43,115 -28,31 -66,52 -113,63 80,28 121,81 121,159 0,57 -20,107 -58,150 -39,43 -103,65 -192,65l-400 0zm288 -454l84 0c67,0 100,-22 100,-67 0,-39 -26,-58 -79,-58l-84 0 -21 125zm-48 292l110 0c34,0 58,-7 71,-22 13,-14 19,-30 19,-46 0,-21 -7,-38 -21,-51 -14,-12 -36,-19 -64,-19l-92 0 -23 138zm1084 -381l-90 543 -196 0 17 -101c-43,76 -103,115 -180,115 -46,0 -83,-13 -109,-38 -26,-25 -39,-56 -39,-93 0,-16 3,-45 10,-87l57 -339 209 0 -53 311c-4,29 -7,46 -7,53 0,27 13,40 38,40 47,0 78,-45 93,-135l44 -269 206 0zm594 0l-259 550c-38,80 -77,131 -117,153 -40,22 -87,33 -142,33 -28,0 -56,-3 -86,-8l0 -147c46,5 79,7 102,7 55,0 83,-15 83,-44 0,-8 -2,-20 -7,-36l-130 -508 216 0 47 218c8,36 12,60 13,69 4,-7 8,-16 12,-27 4,-10 9,-20 14,-31l108 -229 146 0zm574 -208l-27 160 -210 0 26 -160 211 0zm-35 208l-91 543 -210 0 90 -543 211 0zm430 0l-24 139 -98 0 -33 193c-3,19 -5,30 -5,36 0,26 17,39 51,39 15,0 32,-2 51,-6l-23 142c-39,8 -76,12 -112,12 -44,0 -77,-6 -98,-17 -22,-11 -39,-27 -53,-47 -13,-20 -20,-47 -20,-81 0,-14 4,-40 10,-78l32 -193 -75 0 23 -139 77 0 29 -160 197 -4 -28 164 99 0zm355 0l190 0 -14 88c15,-36 38,-63 72,-80 33,-16 68,-25 105,-25 46,0 83,13 112,37 28,24 43,56 43,96 0,16 -2,34 -6,56l-62 371 -207 0 55 -327c4,-21 5,-35 5,-42 0,-30 -16,-45 -48,-45 -43,0 -70,29 -79,87l-55 327 -201 0 90 -543zm836 559c-75,0 -139,-22 -190,-67 -52,-45 -78,-107 -78,-184 0,-94 30,-171 90,-231 60,-60 135,-90 226,-90 84,0 150,23 199,70 49,48 73,106 73,175 0,103 -31,183 -94,241 -63,57 -138,86 -226,86zm9 -132c39,0 65,-28 78,-84 14,-56 21,-103 21,-140 0,-58 -21,-86 -64,-86 -37,0 -63,28 -78,86 -14,57 -21,103 -21,140 0,56 21,84 64,84zm1167 -427l-249 543 -154 0 -29 -312 -129 312 -149 0 -88 -543 201 0 32 273 116 -273 159 0 26 273 120 -273 144 0zm328 -192l-138 489 -124 0 12 -489 250 0zm-102 540l-32 195 -209 0 32 -195 209 0z"/>
 </g>
</svg>
