<?xml version="1.0" encoding="UTF-8"?>
<!DOCTYPE svg PUBLIC "-//W3C//DTD SVG 1.1//EN" "http://www.w3.org/Graphics/SVG/1.1/DTD/svg11.dtd">
<!-- Creator: CorelDRAW X7 -->
<svg xmlns="http://www.w3.org/2000/svg" xml:space="preserve" width="287.514mm" height="205.669mm" version="1.1" style="shape-rendering:geometricPrecision; text-rendering:geometricPrecision; image-rendering:optimizeQuality; fill-rule:evenodd; clip-rule:evenodd"
viewBox="0 0 28751 20567"
 xmlns:xlink="http://www.w3.org/1999/xlink">
 <defs>
  <style type="text/css">
   <![CDATA[
    .fil3 {fill:none}
    .fil0 {fill:black}
    .fil6 {fill:#2BBA2B}
    .fil15 {fill:#519486}
    .fil1 {fill:#58566B}
    .fil12 {fill:#8585B8}
    .fil10 {fill:#8C3535}
    .fil13 {fill:#B4D4B0}
    .fil14 {fill:#B7AFFF}
    .fil4 {fill:#BD0000}
    .fil2 {fill:#E6E6E6}
    .fil7 {fill:#E6E8FA}
    .fil5 {fill:#EDE028}
    .fil8 {fill:#F5E1D2}
    .fil16 {fill:#F7F7F5}
    .fil9 {fill:#FF5959}
    .fil11 {fill:#FFA53F}
   ]]>
  </style>
   <clipPath id="id0">
    <path d="M897 266l26965 0c346,0 629,283 629,629l0 18780c0,346 -283,629 -629,629l-26965 0c-346,0 -629,-283 -629,-629l0 -18780c0,-346 283,-629 629,-629z"/>
   </clipPath>
 </defs>
 <g id="Слой_x0020_1">
  <metadata id="CorelCorpID_0Corel-Layer"/>
  <path class="fil0" d="M862 19l27035 0c474,0 862,388 862,862l0 18824c0,474 -388,862 -862,862l-27035 0c-474,0 -862,-388 -862,-862l0 -18824c0,-474 388,-862 862,-862z"/>
  <path class="fil1" d="M897 266l26965 0c346,0 629,283 629,629l0 18780c0,346 -283,629 -629,629l-26965 0c-346,0 -629,-283 -629,-629l0 -18780c0,-346 283,-629 629,-629z"/>
  <g style="clip-path:url(#id0)">
   <g id="_796361056">
    <polygon id="1" class="fil2" points="57,160 28737,160 28737,2207 57,2207 "/>
   </g>
  </g>
  <path class="fil3" d="M897 266l26965 0c346,0 629,283 629,629l0 18780c0,346 -283,629 -629,629l-26965 0c-346,0 -629,-283 -629,-629l0 -18780c0,-346 283,-629 629,-629z"/>
  <path class="fil4" d="M1468 1713c234,0 423,-190 423,-424 0,-233 -189,-423 -423,-423 -234,0 -424,190 -424,423 0,234 190,424 424,424z"/>
  <path class="fil5" d="M2735 1713c234,0 423,-190 423,-424 0,-233 -189,-423 -423,-423 -234,0 -424,190 -424,423 0,234 190,424 424,424z"/>
  <path class="fil6" d="M3969 1713c234,0 424,-190 424,-424 0,-233 -190,-423 -424,-423 -233,0 -423,190 -423,423 0,234 190,424 423,424z"/>
  <path class="fil7" d="M2522 2877l18047 0c483,0 878,395 878,878l0 14825c0,482 -395,877 -878,877l-18047 0c-483,0 -878,-395 -878,-877l0 -14825c0,-483 395,-878 878,-878z"/>
  <path class="fil8" d="M22669 2879l4669 0c152,0 276,124 276,276l0 10102c0,152 -124,276 -276,276l-4669 0c-152,0 -276,-124 -276,-276l0 -10102c0,-152 124,-276 276,-276z"/>
  <path class="fil8" d="M22669 19457l4669 0c152,0 276,-124 276,-276l0 -4873c0,-152 -124,-277 -276,-277l-4669 0c-152,0 -276,125 -276,277l0 4873c0,152 124,276 276,276z"/>
  <path class="fil9" d="M3953 4182l1028 0c223,0 406,183 406,406l0 0c0,223 -183,406 -406,406l-1028 0c-223,0 -406,-183 -406,-406l0 0c0,-223 183,-406 406,-406z"/>
  <path class="fil10" d="M6707 4164l12788 0c223,0 405,183 405,406l0 0c0,223 -182,406 -405,406l-12788 0c-223,0 -405,-183 -405,-406l0 0c0,-223 182,-406 405,-406z"/>
  <path class="fil9" d="M3953 13497l1028 0c223,0 406,183 406,406l0 0c0,223 -183,406 -406,406l-1028 0c-223,0 -406,-183 -406,-406l0 0c0,-223 183,-406 406,-406z"/>
  <path class="fil10" d="M6707 13480l12788 0c223,0 405,182 405,405l0 0c0,224 -182,406 -405,406l-12788 0c-223,0 -405,-182 -405,-406l0 0c0,-223 182,-405 405,-405z"/>
  <path class="fil11" d="M5595 6020l409 0c224,0 406,183 406,406l0 0c0,223 -182,406 -406,406l-409 0c-223,0 -405,-183 -405,-406l0 0c0,-223 182,-406 405,-406z"/>
  <path class="fil12" d="M7730 6003l10895 0c223,0 406,182 406,406l0 0c0,223 -183,405 -406,405l-10895 0c-223,0 -405,-182 -405,-405l0 0c0,-224 182,-406 405,-406z"/>
  <path class="fil11" d="M5595 7857l409 0c224,0 406,182 406,406l0 0c0,223 -182,405 -406,405l-409 0c-223,0 -405,-182 -405,-405l0 0c0,-224 182,-406 405,-406z"/>
  <path class="fil12" d="M7730 7839l10895 0c223,0 406,183 406,406l0 0c0,223 -183,406 -406,406l-10895 0c-223,0 -405,-183 -405,-406l0 0c0,-223 182,-406 405,-406z"/>
  <path class="fil11" d="M5595 9658l409 0c224,0 406,183 406,406l0 0c0,223 -182,405 -406,405l-409 0c-223,0 -405,-182 -405,-405l0 0c0,-223 182,-406 405,-406z"/>
  <path class="fil12" d="M7730 9640l10895 0c223,0 406,183 406,406l0 0c0,223 -183,406 -406,406l-10895 0c-223,0 -405,-183 -405,-406l0 0c0,-223 182,-406 405,-406z"/>
  <path class="fil11" d="M5595 11671l409 0c224,0 406,182 406,405l0 0c0,224 -182,406 -406,406l-409 0c-223,0 -405,-182 -405,-406l0 0c0,-223 182,-405 405,-405z"/>
  <path class="fil12" d="M7730 11653l10895 0c223,0 406,183 406,406l0 0c0,223 -183,405 -406,405l-10895 0c-223,0 -405,-182 -405,-405l0 0c0,-223 182,-406 405,-406z"/>
  <path class="fil11" d="M5595 15342l409 0c224,0 406,182 406,405l0 0c0,223 -182,406 -406,406l-409 0c-223,0 -405,-183 -405,-406l0 0c0,-223 182,-405 405,-405z"/>
  <path class="fil12" d="M7730 15324l10895 0c223,0 406,182 406,406l0 0c0,223 -183,405 -406,405l-10895 0c-223,0 -405,-182 -405,-405l0 0c0,-224 182,-406 405,-406z"/>
  <path class="fil11" d="M5595 17319l409 0c224,0 406,183 406,406l0 0c0,223 -182,405 -406,405l-409 0c-223,0 -405,-182 -405,-405l0 0c0,-223 182,-406 405,-406z"/>
  <path class="fil12" d="M7730 17301l10895 0c223,0 406,183 406,406l0 0c0,223 -183,406 -406,406l-10895 0c-223,0 -405,-183 -405,-406l0 0c0,-223 182,-406 405,-406z"/>
  <path class="fil13" d="M23483 3420l3101 0c258,0 469,211 469,469l0 3754c0,258 -211,469 -469,469l-3101 0c-258,0 -469,-211 -469,-469l0 -3754c0,-258 211,-469 469,-469z"/>
  <path class="fil14" d="M23453 14585l3101 0c258,0 469,211 469,469l0 3380c0,258 -211,469 -469,469l-3101 0c-258,0 -469,-211 -469,-469l0 -3380c0,-258 211,-469 469,-469z"/>
  <path class="fil15" d="M23461 8835l3113 0c255,0 463,208 463,463l0 3061c0,254 -208,462 -463,462l-3113 0c-255,0 -463,-208 -463,-462l0 -3061c0,-255 208,-463 463,-463z"/>
  <path class="fil9" d="M23552 3565l2963 0c223,0 406,182 406,405l0 0c0,224 -183,406 -406,406l-2963 0c-223,0 -406,-182 -406,-406l0 0c0,-223 183,-405 406,-405z"/>
  <path class="fil9" d="M23508 8962l2999 0c218,0 396,179 396,397l0 0c0,218 -178,397 -396,397l-2999 0c-219,0 -397,-179 -397,-397l0 0c0,-218 178,-397 397,-397z"/>
  <path class="fil9" d="M23146 18364l0 -3246c0,-223 183,-405 406,-405l0 0c223,0 405,182 405,405l0 3246c0,223 -182,405 -405,405l0 0c-223,0 -406,-182 -406,-405z"/>
  <path class="fil16" d="M6168 831l14111 0c194,0 353,158 353,353l0 211c0,194 -159,353 -353,353l-14111 0c-194,0 -353,-159 -353,-353l0 -211c0,-195 159,-353 353,-353z"/>
 </g>
</svg>
