<?xml version="1.0" encoding="UTF-8"?>
<!DOCTYPE svg PUBLIC "-//W3C//DTD SVG 1.1//EN" "http://www.w3.org/Graphics/SVG/1.1/DTD/svg11.dtd">
<!-- Creator: CorelDRAW X7 -->
<svg xmlns="http://www.w3.org/2000/svg" xml:space="preserve" width="220.372mm" height="138.091mm" version="1.1" style="shape-rendering:geometricPrecision; text-rendering:geometricPrecision; image-rendering:optimizeQuality; fill-rule:evenodd; clip-rule:evenodd"
viewBox="0 0 22037 13809"
 xmlns:xlink="http://www.w3.org/1999/xlink">
 <defs>
  <style type="text/css">
   <![CDATA[
    .str0 {stroke:black;stroke-width:84.66}
    .str4 {stroke:black;stroke-width:20}
    .str3 {stroke:#996633;stroke-width:20}
    .str5 {stroke:#DEDEDE;stroke-width:20}
    .str1 {stroke:#FF6600;stroke-width:20}
    .str2 {stroke:yellow;stroke-width:20}
    .fil1 {fill:none}
    .fil12 {fill:black}
    .fil4 {fill:#000066}
    .fil7 {fill:#141E33}
    .fil0 {fill:#161C26}
    .fil6 {fill:#993366}
    .fil11 {fill:#996633}
    .fil15 {fill:#999999}
    .fil13 {fill:#B4D4B0}
    .fil3 {fill:#CCFFCC}
    .fil14 {fill:#DEDEDE}
    .fil5 {fill:#E6E6E6}
    .fil9 {fill:#FF6600}
    .fil10 {fill:yellow}
    .fil8 {fill:black;fill-rule:nonzero}
    .fil2 {fill:#B3B3B3;fill-rule:nonzero}
    .fil16 {fill:red;fill-rule:nonzero}
    .fil17 {fill:white;fill-rule:nonzero}
   ]]>
  </style>
 </defs>
 <g id="Слой_x0020_1">
  <metadata id="CorelCorpID_0Corel-Layer"/>
  <polygon class="fil0" points="-34,18 22003,18 22003,13827 -34,13827 "/>
  <path class="fil1" d="M7341 10923l0 0 0 -425 0 -425 0 -424 0 -425 0 -424 0 -425 0 -424 0 -425 0 -424 0 -425 0 -424 0 -425 0 -424 0 -425 0 -424 0 -425 0 -424 0 -425 0 -424 0 -425 0 -1m-1 1l1 0 482 0 482 0 482 0 481 0 482 0 482 0 482 0 482 0 482 0 482 0 482 0 481 0 482 0 482 0 482 0 482 0 482 0 482 0 482 0 481 0 1 0m-9639 425l1 0 482 0 482 0 482 0 481 0 482 0 482 0 482 0 482 0 482 0 482 0 482 0 481 0 482 0 482 0 482 0 482 0 482 0 482 0 482 0 481 0 1 0m-9639 424l1 0 482 0 482 0 482 0 481 0 482 0 482 0 482 0 482 0 482 0 482 0 482 0 481 0 482 0 482 0 482 0 482 0 482 0 482 0 482 0 481 0 1 0m-9639 425l1 0 482 0 482 0 482 0 481 0 482 0 482 0 482 0 482 0 482 0 482 0 482 0 481 0 482 0 482 0 482 0 482 0 482 0 482 0 482 0 481 0 1 0m-9639 424l1 0 482 0 482 0 482 0 481 0 482 0 482 0 482 0 482 0 482 0 482 0 482 0 481 0 482 0 482 0 482 0 482 0 482 0 482 0 482 0 481 0 1 0m-9639 425l1 0 482 0 482 0 482 0 481 0 482 0 482 0 482 0 482 0 482 0 482 0 482 0 481 0 482 0 482 0 482 0 482 0 482 0 482 0 482 0 481 0 1 0m-9639 424l1 0 482 0 482 0 482 0 481 0 482 0 482 0 482 0 482 0 482 0 482 0 482 0 481 0 482 0 482 0 482 0 482 0 482 0 482 0 482 0 481 0 1 0m-9639 425l1 0 482 0 482 0 482 0 481 0 482 0 482 0 482 0 482 0 482 0 482 0 482 0 481 0 482 0 482 0 482 0 482 0 482 0 482 0 482 0 481 0 1 0m-9639 424l1 0 482 0 482 0 482 0 481 0 482 0 482 0 482 0 482 0 482 0 482 0 482 0 481 0 482 0 482 0 482 0 482 0 482 0 482 0 482 0 481 0 1 0m-9639 425l1 0 482 0 482 0 482 0 481 0 482 0 482 0 482 0 482 0 482 0 482 0 482 0 481 0 482 0 482 0 482 0 482 0 482 0 482 0 482 0 481 0 1 0m-9639 424l1 0 482 0 482 0 482 0 481 0 482 0 482 0 482 0 482 0 482 0 482 0 482 0 481 0 482 0 482 0 482 0 482 0 482 0 482 0 482 0 481 0 1 0m-9639 425l1 0 482 0 482 0 482 0 481 0 482 0 482 0 482 0 482 0 482 0 482 0 482 0 481 0 482 0 482 0 482 0 482 0 482 0 482 0 482 0 481 0 1 0m-9639 424l1 0 482 0 482 0 482 0 481 0 482 0 482 0 482 0 482 0 482 0 482 0 482 0 481 0 482 0 482 0 482 0 482 0 482 0 482 0 482 0 481 0 1 0m-9639 425l1 0 482 0 482 0 482 0 481 0 482 0 482 0 482 0 482 0 482 0 482 0 482 0 481 0 482 0 482 0 482 0 482 0 482 0 482 0 482 0 481 0 1 0m-9639 424l1 0 482 0 482 0 482 0 481 0 482 0 482 0 482 0 482 0 482 0 482 0 482 0 481 0 482 0 482 0 482 0 482 0 482 0 482 0 482 0 481 0 1 0m-9639 425l1 0 482 0 482 0 482 0 481 0 482 0 482 0 482 0 482 0 482 0 482 0 482 0 481 0 482 0 482 0 482 0 482 0 482 0 482 0 482 0 481 0 1 0m-9639 424l1 0 482 0 482 0 482 0 481 0 482 0 482 0 482 0 482 0 482 0 482 0 482 0 481 0 482 0 482 0 482 0 482 0 482 0 482 0 482 0 481 0 1 0m-9639 425l1 0 482 0 482 0 482 0 481 0 482 0 482 0 482 0 482 0 482 0 482 0 482 0 481 0 482 0 482 0 482 0 482 0 482 0 482 0 482 0 481 0 1 0m-9639 424l1 0 482 0 482 0 482 0 481 0 482 0 482 0 482 0 482 0 482 0 482 0 482 0 481 0 482 0 482 0 482 0 482 0 482 0 482 0 482 0 481 0 1 0m-9639 425l1 0 482 0 482 0 482 0 481 0 482 0 482 0 482 0 482 0 482 0 482 0 482 0 481 0 482 0 482 0 482 0 482 0 482 0 482 0 482 0 481 0 1 0m-9639 425l1 0 482 0 482 0 482 0 481 0 482 0 482 0 482 0 482 0 482 0 482 0 482 0 481 0 482 0 482 0 482 0 482 0 482 0 482 0 482 0 481 0 1 0m-1 0l0 0 0 -425 0 -425 0 -424 0 -425 0 -424 0 -425 0 -424 0 -425 0 -424 0 -425 0 -424 0 -425 0 -424 0 -425 0 -424 0 -425 0 -424 0 -425 0 -424 0 -425 0 -1m-481 8492l0 0 0 -425 0 -425 0 -424 0 -425 0 -424 0 -425 0 -424 0 -425 0 -424 0 -425 0 -424 0 -425 0 -424 0 -425 0 -424 0 -425 0 -424 0 -425 0 -424 0 -425 0 -1m-482 8492l0 0 0 -425 0 -425 0 -424 0 -425 0 -424 0 -425 0 -424 0 -425 0 -424 0 -425 0 -424 0 -425 0 -424 0 -425 0 -424 0 -425 0 -424 0 -425 0 -424 0 -425 0 -1m-482 8492l0 0 0 -425 0 -425 0 -424 0 -425 0 -424 0 -425 0 -424 0 -425 0 -424 0 -425 0 -424 0 -425 0 -424 0 -425 0 -424 0 -425 0 -424 0 -425 0 -424 0 -425 0 -1m-482 8492l0 0 0 -425 0 -425 0 -424 0 -425 0 -424 0 -425 0 -424 0 -425 0 -424 0 -425 0 -424 0 -425 0 -424 0 -425 0 -424 0 -425 0 -424 0 -425 0 -424 0 -425 0 -1m-482 8492l0 0 0 -425 0 -425 0 -424 0 -425 0 -424 0 -425 0 -424 0 -425 0 -424 0 -425 0 -424 0 -425 0 -424 0 -425 0 -424 0 -425 0 -424 0 -425 0 -424 0 -425 0 -1m-482 8492l0 0 0 -425 0 -425 0 -424 0 -425 0 -424 0 -425 0 -424 0 -425 0 -424 0 -425 0 -424 0 -425 0 -424 0 -425 0 -424 0 -425 0 -424 0 -425 0 -424 0 -425 0 -1m-482 8492l0 0 0 -425 0 -425 0 -424 0 -425 0 -424 0 -425 0 -424 0 -425 0 -424 0 -425 0 -424 0 -425 0 -424 0 -425 0 -424 0 -425 0 -424 0 -425 0 -424 0 -425 0 -1m-482 8492l0 0 0 -425 0 -425 0 -424 0 -425 0 -424 0 -425 0 -424 0 -425 0 -424 0 -425 0 -424 0 -425 0 -424 0 -425 0 -424 0 -425 0 -424 0 -425 0 -424 0 -425 0 -1m-481 8492l0 0 0 -425 0 -425 0 -424 0 -425 0 -424 0 -425 0 -424 0 -425 0 -424 0 -425 0 -424 0 -425 0 -424 0 -425 0 -424 0 -425 0 -424 0 -425 0 -424 0 -425 0 -1m-482 8492l0 0 0 -425 0 -425 0 -424 0 -425 0 -424 0 -425 0 -424 0 -425 0 -424 0 -425 0 -424 0 -425 0 -424 0 -425 0 -424 0 -425 0 -424 0 -425 0 -424 0 -425 0 -1m-482 8492l0 0 0 -425 0 -425 0 -424 0 -425 0 -424 0 -425 0 -424 0 -425 0 -424 0 -425 0 -424 0 -425 0 -424 0 -425 0 -424 0 -425 0 -424 0 -425 0 -424 0 -425 0 -1m-482 8492l0 0 0 -425 0 -425 0 -424 0 -425 0 -424 0 -425 0 -424 0 -425 0 -424 0 -425 0 -424 0 -425 0 -424 0 -425 0 -424 0 -425 0 -424 0 -425 0 -424 0 -425 0 -1m-482 8492l0 0 0 -425 0 -425 0 -424 0 -425 0 -424 0 -425 0 -424 0 -425 0 -424 0 -425 0 -424 0 -425 0 -424 0 -425 0 -424 0 -425 0 -424 0 -425 0 -424 0 -425 0 -1m-482 8492l0 0 0 -425 0 -425 0 -424 0 -425 0 -424 0 -425 0 -424 0 -425 0 -424 0 -425 0 -424 0 -425 0 -424 0 -425 0 -424 0 -425 0 -424 0 -425 0 -424 0 -425 0 -1m-482 8492l0 0 0 -425 0 -425 0 -424 0 -425 0 -424 0 -425 0 -424 0 -425 0 -424 0 -425 0 -424 0 -425 0 -424 0 -425 0 -424 0 -425 0 -424 0 -425 0 -424 0 -425 0 -1m-482 8492l0 0 0 -425 0 -425 0 -424 0 -425 0 -424 0 -425 0 -424 0 -425 0 -424 0 -425 0 -424 0 -425 0 -424 0 -425 0 -424 0 -425 0 -424 0 -425 0 -424 0 -425 0 -1m-481 8492l0 0 0 -425 0 -425 0 -424 0 -425 0 -424 0 -425 0 -424 0 -425 0 -424 0 -425 0 -424 0 -425 0 -424 0 -425 0 -424 0 -425 0 -424 0 -425 0 -424 0 -425 0 -1m-482 8492l0 0 0 -425 0 -425 0 -424 0 -425 0 -424 0 -425 0 -424 0 -425 0 -424 0 -425 0 -424 0 -425 0 -424 0 -425 0 -424 0 -425 0 -424 0 -425 0 -424 0 -425 0 -1m-482 8492l0 0 0 -425 0 -425 0 -424 0 -425 0 -424 0 -425 0 -424 0 -425 0 -424 0 -425 0 -424 0 -425 0 -424 0 -425 0 -424 0 -425 0 -424 0 -425 0 -424 0 -425 0 -1"/>
  <path class="fil2" d="M7335 10923l0 0 0 -425 0 -425 0 -424 0 -425 0 -424 0 -425 0 -424 0 -425 0 -424 0 -425 0 -424 0 -425 0 -424 0 -425 0 -424 0 -425 0 -424 0 -425 0 -424 0 -425 0 -1 5 0 0 -5 1 0 482 0 482 0 482 0 481 0 482 0 482 0 482 0 482 0 482 0 482 0 482 0 481 0 482 0 482 0 482 0 482 0 482 0 482 0 482 0 481 0 1 0 0 5 6 0 0 1 0 425 0 424 0 425 0 424 0 425 0 424 0 425 0 424 0 425 0 424 0 425 0 424 0 425 0 424 0 425 0 424 0 425 0 424 0 425 0 425 0 0 -6 0 0 6 -1 0 -481 0 -482 0 -482 0 -482 0 -482 0 -482 0 -482 0 -482 0 -481 0 -482 0 -482 0 -482 0 -482 0 -482 0 -482 0 -482 0 -481 0 -482 0 -482 0 -482 0 -1 0 0 -6 -5 0zm12 -419l0 412 470 0 0 -412 -470 0zm0 -424l0 412 470 0 0 -412 -470 0zm0 -425l0 412 470 0 0 -412 -470 0zm0 -424l0 412 470 0 0 -412 -470 0zm0 -425l0 412 470 0 0 -412 -470 0zm0 -424l0 412 470 0 0 -412 -470 0zm0 -425l0 412 470 0 0 -412 -470 0zm0 -424l0 412 470 0 0 -412 -470 0zm0 -425l0 412 470 0 0 -412 -470 0zm0 -424l0 412 470 0 0 -412 -470 0zm0 -425l0 412 470 0 0 -412 -470 0zm0 -424l0 412 470 0 0 -412 -470 0zm0 -425l0 412 470 0 0 -412 -470 0zm0 -424l0 412 470 0 0 -412 -470 0zm0 -425l0 412 470 0 0 -412 -470 0zm0 -425l0 413 470 0 0 -413 -470 0zm0 -424l0 412 470 0 0 -412 -470 0zm0 -425l0 413 470 0 0 -413 -470 0zm0 -424l0 412 470 0 0 -412 -470 0zm0 -425l0 412 470 0 0 -412 -470 0zm951 0l-469 0 0 412 469 0 0 -412zm482 0l-469 0 0 412 469 0 0 -412zm482 0l-469 0 0 412 469 0 0 -412zm482 0l-469 0 0 412 469 0 0 -412zm482 0l-470 0 0 412 470 0 0 -412zm482 0l-470 0 0 412 470 0 0 -412zm482 0l-470 0 0 412 470 0 0 -412zm482 0l-470 0 0 412 470 0 0 -412zm481 0l-469 0 0 412 469 0 0 -412zm482 0l-469 0 0 412 469 0 0 -412zm482 0l-469 0 0 412 469 0 0 -412zm482 0l-469 0 0 412 469 0 0 -412zm482 0l-469 0 0 412 469 0 0 -412zm482 0l-470 0 0 412 470 0 0 -412zm482 0l-470 0 0 412 470 0 0 -412zm482 0l-470 0 0 412 470 0 0 -412zm481 0l-469 0 0 412 469 0 0 -412zm482 0l-469 0 0 412 469 0 0 -412zm482 0l-469 0 0 412 469 0 0 -412zm-8674 425l-469 0 0 412 469 0 0 -412zm482 0l-469 0 0 412 469 0 0 -412zm482 0l-469 0 0 412 469 0 0 -412zm482 0l-469 0 0 412 469 0 0 -412zm482 0l-470 0 0 412 470 0 0 -412zm482 0l-470 0 0 412 470 0 0 -412zm482 0l-470 0 0 412 470 0 0 -412zm482 0l-470 0 0 412 470 0 0 -412zm481 0l-469 0 0 412 469 0 0 -412zm482 0l-469 0 0 412 469 0 0 -412zm482 0l-469 0 0 412 469 0 0 -412zm482 0l-469 0 0 412 469 0 0 -412zm482 0l-469 0 0 412 469 0 0 -412zm482 0l-470 0 0 412 470 0 0 -412zm482 0l-470 0 0 412 470 0 0 -412zm482 0l-470 0 0 412 470 0 0 -412zm481 0l-469 0 0 412 469 0 0 -412zm482 0l-469 0 0 412 469 0 0 -412zm482 0l-469 0 0 412 469 0 0 -412zm-8674 424l-469 0 0 413 469 0 0 -413zm482 0l-469 0 0 413 469 0 0 -413zm482 0l-469 0 0 413 469 0 0 -413zm482 0l-469 0 0 413 469 0 0 -413zm482 0l-470 0 0 413 470 0 0 -413zm482 0l-470 0 0 413 470 0 0 -413zm482 0l-470 0 0 413 470 0 0 -413zm482 0l-470 0 0 413 470 0 0 -413zm481 0l-469 0 0 413 469 0 0 -413zm482 0l-469 0 0 413 469 0 0 -413zm482 0l-469 0 0 413 469 0 0 -413zm482 0l-469 0 0 413 469 0 0 -413zm482 0l-469 0 0 413 469 0 0 -413zm482 0l-470 0 0 413 470 0 0 -413zm482 0l-470 0 0 413 470 0 0 -413zm482 0l-470 0 0 413 470 0 0 -413zm481 0l-469 0 0 413 469 0 0 -413zm482 0l-469 0 0 413 469 0 0 -413zm482 0l-469 0 0 413 469 0 0 -413zm-8674 425l-469 0 0 412 469 0 0 -412zm482 0l-469 0 0 412 469 0 0 -412zm482 0l-469 0 0 412 469 0 0 -412zm482 0l-469 0 0 412 469 0 0 -412zm482 0l-470 0 0 412 470 0 0 -412zm482 0l-470 0 0 412 470 0 0 -412zm482 0l-470 0 0 412 470 0 0 -412zm482 0l-470 0 0 412 470 0 0 -412zm481 0l-469 0 0 412 469 0 0 -412zm482 0l-469 0 0 412 469 0 0 -412zm482 0l-469 0 0 412 469 0 0 -412zm482 0l-469 0 0 412 469 0 0 -412zm482 0l-469 0 0 412 469 0 0 -412zm482 0l-470 0 0 412 470 0 0 -412zm482 0l-470 0 0 412 470 0 0 -412zm482 0l-470 0 0 412 470 0 0 -412zm481 0l-469 0 0 412 469 0 0 -412zm482 0l-469 0 0 412 469 0 0 -412zm482 0l-469 0 0 412 469 0 0 -412zm-8674 424l-469 0 0 413 469 0 0 -413zm482 0l-469 0 0 413 469 0 0 -413zm482 0l-469 0 0 413 469 0 0 -413zm482 0l-469 0 0 413 469 0 0 -413zm482 0l-470 0 0 413 470 0 0 -413zm482 0l-470 0 0 413 470 0 0 -413zm482 0l-470 0 0 413 470 0 0 -413zm482 0l-470 0 0 413 470 0 0 -413zm481 0l-469 0 0 413 469 0 0 -413zm482 0l-469 0 0 413 469 0 0 -413zm482 0l-469 0 0 413 469 0 0 -413zm482 0l-469 0 0 413 469 0 0 -413zm482 0l-469 0 0 413 469 0 0 -413zm482 0l-470 0 0 413 470 0 0 -413zm482 0l-470 0 0 413 470 0 0 -413zm482 0l-470 0 0 413 470 0 0 -413zm481 0l-469 0 0 413 469 0 0 -413zm482 0l-469 0 0 413 469 0 0 -413zm482 0l-469 0 0 413 469 0 0 -413zm-8674 425l-469 0 0 412 469 0 0 -412zm482 0l-469 0 0 412 469 0 0 -412zm482 0l-469 0 0 412 469 0 0 -412zm482 0l-469 0 0 412 469 0 0 -412zm482 0l-470 0 0 412 470 0 0 -412zm482 0l-470 0 0 412 470 0 0 -412zm482 0l-470 0 0 412 470 0 0 -412zm482 0l-470 0 0 412 470 0 0 -412zm481 0l-469 0 0 412 469 0 0 -412zm482 0l-469 0 0 412 469 0 0 -412zm482 0l-469 0 0 412 469 0 0 -412zm482 0l-469 0 0 412 469 0 0 -412zm482 0l-469 0 0 412 469 0 0 -412zm482 0l-470 0 0 412 470 0 0 -412zm482 0l-470 0 0 412 470 0 0 -412zm482 0l-470 0 0 412 470 0 0 -412zm481 0l-469 0 0 412 469 0 0 -412zm482 0l-469 0 0 412 469 0 0 -412zm482 0l-469 0 0 412 469 0 0 -412zm-8674 425l-469 0 0 412 469 0 0 -412zm482 0l-469 0 0 412 469 0 0 -412zm482 0l-469 0 0 412 469 0 0 -412zm482 0l-469 0 0 412 469 0 0 -412zm482 0l-470 0 0 412 470 0 0 -412zm482 0l-470 0 0 412 470 0 0 -412zm482 0l-470 0 0 412 470 0 0 -412zm482 0l-470 0 0 412 470 0 0 -412zm481 0l-469 0 0 412 469 0 0 -412zm482 0l-469 0 0 412 469 0 0 -412zm482 0l-469 0 0 412 469 0 0 -412zm482 0l-469 0 0 412 469 0 0 -412zm482 0l-469 0 0 412 469 0 0 -412zm482 0l-470 0 0 412 470 0 0 -412zm482 0l-470 0 0 412 470 0 0 -412zm482 0l-470 0 0 412 470 0 0 -412zm481 0l-469 0 0 412 469 0 0 -412zm482 0l-469 0 0 412 469 0 0 -412zm482 0l-469 0 0 412 469 0 0 -412zm-8674 424l-469 0 0 412 469 0 0 -412zm482 0l-469 0 0 412 469 0 0 -412zm482 0l-469 0 0 412 469 0 0 -412zm482 0l-469 0 0 412 469 0 0 -412zm482 0l-470 0 0 412 470 0 0 -412zm482 0l-470 0 0 412 470 0 0 -412zm482 0l-470 0 0 412 470 0 0 -412zm482 0l-470 0 0 412 470 0 0 -412zm481 0l-469 0 0 412 469 0 0 -412zm482 0l-469 0 0 412 469 0 0 -412zm482 0l-469 0 0 412 469 0 0 -412zm482 0l-469 0 0 412 469 0 0 -412zm482 0l-469 0 0 412 469 0 0 -412zm482 0l-470 0 0 412 470 0 0 -412zm482 0l-470 0 0 412 470 0 0 -412zm482 0l-470 0 0 412 470 0 0 -412zm481 0l-469 0 0 412 469 0 0 -412zm482 0l-469 0 0 412 469 0 0 -412zm482 0l-469 0 0 412 469 0 0 -412zm-8674 425l-469 0 0 412 469 0 0 -412zm482 0l-469 0 0 412 469 0 0 -412zm482 0l-469 0 0 412 469 0 0 -412zm482 0l-469 0 0 412 469 0 0 -412zm482 0l-470 0 0 412 470 0 0 -412zm482 0l-470 0 0 412 470 0 0 -412zm482 0l-470 0 0 412 470 0 0 -412zm482 0l-470 0 0 412 470 0 0 -412zm481 0l-469 0 0 412 469 0 0 -412zm482 0l-469 0 0 412 469 0 0 -412zm482 0l-469 0 0 412 469 0 0 -412zm482 0l-469 0 0 412 469 0 0 -412zm482 0l-469 0 0 412 469 0 0 -412zm482 0l-470 0 0 412 470 0 0 -412zm482 0l-470 0 0 412 470 0 0 -412zm482 0l-470 0 0 412 470 0 0 -412zm481 0l-469 0 0 412 469 0 0 -412zm482 0l-469 0 0 412 469 0 0 -412zm482 0l-469 0 0 412 469 0 0 -412zm-8674 424l-469 0 0 412 469 0 0 -412zm482 0l-469 0 0 412 469 0 0 -412zm482 0l-469 0 0 412 469 0 0 -412zm482 0l-469 0 0 412 469 0 0 -412zm482 0l-470 0 0 412 470 0 0 -412zm482 0l-470 0 0 412 470 0 0 -412zm482 0l-470 0 0 412 470 0 0 -412zm482 0l-470 0 0 412 470 0 0 -412zm481 0l-469 0 0 412 469 0 0 -412zm482 0l-469 0 0 412 469 0 0 -412zm482 0l-469 0 0 412 469 0 0 -412zm482 0l-469 0 0 412 469 0 0 -412zm482 0l-469 0 0 412 469 0 0 -412zm482 0l-470 0 0 412 470 0 0 -412zm482 0l-470 0 0 412 470 0 0 -412zm482 0l-470 0 0 412 470 0 0 -412zm481 0l-469 0 0 412 469 0 0 -412zm482 0l-469 0 0 412 469 0 0 -412zm482 0l-469 0 0 412 469 0 0 -412zm-8674 425l-469 0 0 412 469 0 0 -412zm482 0l-469 0 0 412 469 0 0 -412zm482 0l-469 0 0 412 469 0 0 -412zm482 0l-469 0 0 412 469 0 0 -412zm482 0l-470 0 0 412 470 0 0 -412zm482 0l-470 0 0 412 470 0 0 -412zm482 0l-470 0 0 412 470 0 0 -412zm482 0l-470 0 0 412 470 0 0 -412zm481 0l-469 0 0 412 469 0 0 -412zm482 0l-469 0 0 412 469 0 0 -412zm482 0l-469 0 0 412 469 0 0 -412zm482 0l-469 0 0 412 469 0 0 -412zm482 0l-469 0 0 412 469 0 0 -412zm482 0l-470 0 0 412 470 0 0 -412zm482 0l-470 0 0 412 470 0 0 -412zm482 0l-470 0 0 412 470 0 0 -412zm481 0l-469 0 0 412 469 0 0 -412zm482 0l-469 0 0 412 469 0 0 -412zm482 0l-469 0 0 412 469 0 0 -412zm-8674 424l-469 0 0 412 469 0 0 -412zm482 0l-469 0 0 412 469 0 0 -412zm482 0l-469 0 0 412 469 0 0 -412zm482 0l-469 0 0 412 469 0 0 -412zm482 0l-470 0 0 412 470 0 0 -412zm482 0l-470 0 0 412 470 0 0 -412zm482 0l-470 0 0 412 470 0 0 -412zm482 0l-470 0 0 412 470 0 0 -412zm481 0l-469 0 0 412 469 0 0 -412zm482 0l-469 0 0 412 469 0 0 -412zm482 0l-469 0 0 412 469 0 0 -412zm482 0l-469 0 0 412 469 0 0 -412zm482 0l-469 0 0 412 469 0 0 -412zm482 0l-470 0 0 412 470 0 0 -412zm482 0l-470 0 0 412 470 0 0 -412zm482 0l-470 0 0 412 470 0 0 -412zm481 0l-469 0 0 412 469 0 0 -412zm482 0l-469 0 0 412 469 0 0 -412zm482 0l-469 0 0 412 469 0 0 -412zm-8674 425l-469 0 0 412 469 0 0 -412zm482 0l-469 0 0 412 469 0 0 -412zm482 0l-469 0 0 412 469 0 0 -412zm482 0l-469 0 0 412 469 0 0 -412zm482 0l-470 0 0 412 470 0 0 -412zm482 0l-470 0 0 412 470 0 0 -412zm482 0l-470 0 0 412 470 0 0 -412zm482 0l-470 0 0 412 470 0 0 -412zm481 0l-469 0 0 412 469 0 0 -412zm482 0l-469 0 0 412 469 0 0 -412zm482 0l-469 0 0 412 469 0 0 -412zm482 0l-469 0 0 412 469 0 0 -412zm482 0l-469 0 0 412 469 0 0 -412zm482 0l-470 0 0 412 470 0 0 -412zm482 0l-470 0 0 412 470 0 0 -412zm482 0l-470 0 0 412 470 0 0 -412zm481 0l-469 0 0 412 469 0 0 -412zm482 0l-469 0 0 412 469 0 0 -412zm482 0l-469 0 0 412 469 0 0 -412zm-8674 424l-469 0 0 412 469 0 0 -412zm482 0l-469 0 0 412 469 0 0 -412zm482 0l-469 0 0 412 469 0 0 -412zm482 0l-469 0 0 412 469 0 0 -412zm482 0l-470 0 0 412 470 0 0 -412zm482 0l-470 0 0 412 470 0 0 -412zm482 0l-470 0 0 412 470 0 0 -412zm482 0l-470 0 0 412 470 0 0 -412zm481 0l-469 0 0 412 469 0 0 -412zm482 0l-469 0 0 412 469 0 0 -412zm482 0l-469 0 0 412 469 0 0 -412zm482 0l-469 0 0 412 469 0 0 -412zm482 0l-469 0 0 412 469 0 0 -412zm482 0l-470 0 0 412 470 0 0 -412zm482 0l-470 0 0 412 470 0 0 -412zm482 0l-470 0 0 412 470 0 0 -412zm481 0l-469 0 0 412 469 0 0 -412zm482 0l-469 0 0 412 469 0 0 -412zm482 0l-469 0 0 412 469 0 0 -412zm-8674 425l-469 0 0 412 469 0 0 -412zm482 0l-469 0 0 412 469 0 0 -412zm482 0l-469 0 0 412 469 0 0 -412zm482 0l-469 0 0 412 469 0 0 -412zm482 0l-470 0 0 412 470 0 0 -412zm482 0l-470 0 0 412 470 0 0 -412zm482 0l-470 0 0 412 470 0 0 -412zm482 0l-470 0 0 412 470 0 0 -412zm481 0l-469 0 0 412 469 0 0 -412zm482 0l-469 0 0 412 469 0 0 -412zm482 0l-469 0 0 412 469 0 0 -412zm482 0l-469 0 0 412 469 0 0 -412zm482 0l-469 0 0 412 469 0 0 -412zm482 0l-470 0 0 412 470 0 0 -412zm482 0l-470 0 0 412 470 0 0 -412zm482 0l-470 0 0 412 470 0 0 -412zm481 0l-469 0 0 412 469 0 0 -412zm482 0l-469 0 0 412 469 0 0 -412zm482 0l-469 0 0 412 469 0 0 -412zm-8674 424l-469 0 0 412 469 0 0 -412zm482 0l-469 0 0 412 469 0 0 -412zm482 0l-469 0 0 412 469 0 0 -412zm482 0l-469 0 0 412 469 0 0 -412zm482 0l-470 0 0 412 470 0 0 -412zm482 0l-470 0 0 412 470 0 0 -412zm482 0l-470 0 0 412 470 0 0 -412zm482 0l-470 0 0 412 470 0 0 -412zm481 0l-469 0 0 412 469 0 0 -412zm482 0l-469 0 0 412 469 0 0 -412zm482 0l-469 0 0 412 469 0 0 -412zm482 0l-469 0 0 412 469 0 0 -412zm482 0l-469 0 0 412 469 0 0 -412zm482 0l-470 0 0 412 470 0 0 -412zm482 0l-470 0 0 412 470 0 0 -412zm482 0l-470 0 0 412 470 0 0 -412zm481 0l-469 0 0 412 469 0 0 -412zm482 0l-469 0 0 412 469 0 0 -412zm482 0l-469 0 0 412 469 0 0 -412zm-8674 425l-469 0 0 412 469 0 0 -412zm482 0l-469 0 0 412 469 0 0 -412zm482 0l-469 0 0 412 469 0 0 -412zm482 0l-469 0 0 412 469 0 0 -412zm482 0l-470 0 0 412 470 0 0 -412zm482 0l-470 0 0 412 470 0 0 -412zm482 0l-470 0 0 412 470 0 0 -412zm482 0l-470 0 0 412 470 0 0 -412zm481 0l-469 0 0 412 469 0 0 -412zm482 0l-469 0 0 412 469 0 0 -412zm482 0l-469 0 0 412 469 0 0 -412zm482 0l-469 0 0 412 469 0 0 -412zm482 0l-469 0 0 412 469 0 0 -412zm482 0l-470 0 0 412 470 0 0 -412zm482 0l-470 0 0 412 470 0 0 -412zm482 0l-470 0 0 412 470 0 0 -412zm481 0l-469 0 0 412 469 0 0 -412zm482 0l-469 0 0 412 469 0 0 -412zm482 0l-469 0 0 412 469 0 0 -412zm-8674 424l-469 0 0 412 469 0 0 -412zm482 0l-469 0 0 412 469 0 0 -412zm482 0l-469 0 0 412 469 0 0 -412zm482 0l-469 0 0 412 469 0 0 -412zm482 0l-470 0 0 412 470 0 0 -412zm482 0l-470 0 0 412 470 0 0 -412zm482 0l-470 0 0 412 470 0 0 -412zm482 0l-470 0 0 412 470 0 0 -412zm481 0l-469 0 0 412 469 0 0 -412zm482 0l-469 0 0 412 469 0 0 -412zm482 0l-469 0 0 412 469 0 0 -412zm482 0l-469 0 0 412 469 0 0 -412zm482 0l-469 0 0 412 469 0 0 -412zm482 0l-470 0 0 412 470 0 0 -412zm482 0l-470 0 0 412 470 0 0 -412zm482 0l-470 0 0 412 470 0 0 -412zm481 0l-469 0 0 412 469 0 0 -412zm482 0l-469 0 0 412 469 0 0 -412zm482 0l-469 0 0 412 469 0 0 -412zm-8674 425l-469 0 0 412 469 0 0 -412zm482 0l-469 0 0 412 469 0 0 -412zm482 0l-469 0 0 412 469 0 0 -412zm482 0l-469 0 0 412 469 0 0 -412zm482 0l-470 0 0 412 470 0 0 -412zm482 0l-470 0 0 412 470 0 0 -412zm482 0l-470 0 0 412 470 0 0 -412zm482 0l-470 0 0 412 470 0 0 -412zm481 0l-469 0 0 412 469 0 0 -412zm482 0l-469 0 0 412 469 0 0 -412zm482 0l-469 0 0 412 469 0 0 -412zm482 0l-469 0 0 412 469 0 0 -412zm482 0l-469 0 0 412 469 0 0 -412zm482 0l-470 0 0 412 470 0 0 -412zm482 0l-470 0 0 412 470 0 0 -412zm482 0l-470 0 0 412 470 0 0 -412zm481 0l-469 0 0 412 469 0 0 -412zm482 0l-469 0 0 412 469 0 0 -412zm482 0l-469 0 0 412 469 0 0 -412zm-8674 424l-469 0 0 412 469 0 0 -412zm482 0l-469 0 0 412 469 0 0 -412zm482 0l-469 0 0 412 469 0 0 -412zm482 0l-469 0 0 412 469 0 0 -412zm482 0l-470 0 0 412 470 0 0 -412zm482 0l-470 0 0 412 470 0 0 -412zm482 0l-470 0 0 412 470 0 0 -412zm482 0l-470 0 0 412 470 0 0 -412zm481 0l-469 0 0 412 469 0 0 -412zm482 0l-469 0 0 412 469 0 0 -412zm482 0l-469 0 0 412 469 0 0 -412zm482 0l-469 0 0 412 469 0 0 -412zm482 0l-469 0 0 412 469 0 0 -412zm482 0l-470 0 0 412 470 0 0 -412zm482 0l-470 0 0 412 470 0 0 -412zm482 0l-470 0 0 412 470 0 0 -412zm481 0l-469 0 0 412 469 0 0 -412zm482 0l-469 0 0 412 469 0 0 -412zm482 0l-469 0 0 412 469 0 0 -412z"/>
  <polygon class="fil3" points="3415,8094 6261,8094 6261,10923 3415,10923 "/>
  <g id="_724912000">
   <g>
    <path id="_1" class="fil4" d="M5376 9110c-191,-324 -284,-623 -209,-667 76,-44 291,183 481,508 190,325 283,624 208,668 -75,44 -290,-184 -480,-509z"/>
    <polygon class="fil4" points="4713,10288 4024,9112 5167,8443 5856,9619 "/>
    <polygon class="fil5" points="4294,9573 4182,9382 5441,8644 5569,8825 "/>
    <path class="fil6" d="M4683 10309c28,9 32,-16 38,-101 19,79 -14,96 -13,135 0,38 16,105 -27,157 -134,162 -335,-46 -207,-173 37,-38 105,-52 209,-18z"/>
    <path class="fil7" d="M4615 9176c-31,-53 -99,-71 -151,-40 -53,31 -71,99 -40,152 31,53 99,70 152,39 52,-31 70,-98 39,-151z"/>
    <path class="fil1 str0" d="M4520 9232c-1320,-570 -839,477 -189,580"/>
    <path class="fil6" d="M4232 9780c-190,-325 -283,-624 -208,-668 75,-44 290,184 481,509 190,324 283,623 208,667 -75,44 -291,-183 -481,-508z"/>
   </g>
  </g>
  <polygon class="fil1" points="3415,8094 6261,8094 6261,10923 3415,10923 "/>
  <path class="fil8" d="M3415 8061l2846 0 34 0 0 33 0 2829 0 34 -34 0 -2846 0 -33 0 0 -34 0 -2829 0 -33 33 0zm2813 66l-2780 0 0 2763 2780 0 0 -2763z"/>
  <polygon class="fil3" points="3416,2434 6263,2434 6263,5264 3416,5264 "/>
  <g id="_724905312">
   <g>
    <polygon class="fil9" points="5078,4731 5761,4048 6263,4550 6263,5264 5611,5264 "/>
    <path id="_1_0" class="fil1 str1" d="M5078 4731l683 -683 502 502m-652 714l-533 -533"/>
    <polygon class="fil10" points="5351,4457 5461,4347 6263,5149 6263,5264 6158,5264 "/>
    <path class="fil1 str2" d="M5351 4457l110 -110 802 802m-105 115l-807 -807"/>
    <polygon class="fil11 str3" points="5078,4731 4312,3311 5761,4048 "/>
    <polygon class="fil12 str4" points="4313,3319 4495,3649 4657,3487 "/>
   </g>
  </g>
  <polygon class="fil1" points="3416,2434 6263,2434 6263,5264 3416,5264 "/>
  <path class="fil8" d="M3416 2401l2847 0 33 0 0 33 0 2830 0 33 -33 0 -2847 0 -33 0 0 -33 0 -2830 0 -33 33 0zm2813 67l-2779 0 0 2762 2779 0 0 -2762z"/>
  <polygon class="fil13" points="3415,5265 6261,5265 6261,8094 3415,8094 "/>
  <g id="_724889696">
   <g>
    <path id="_1_1" class="fil11" d="M4372 5763c-131,762 -94,1668 883,1662l235 -273c-96,-511 -597,-658 -1118,-1389z"/>
   </g>
   <g>
    <g>
     <path id="_2" class="fil9" d="M4325 6531c56,-193 152,-396 309,-440 -85,-96 -174,-203 -262,-328 -44,253 -69,522 -47,768l0 0z"/>
    </g>
   </g>
   <g>
    <path class="fil1" d="M4372 5763c-131,762 -94,1668 883,1662l235 -273c-96,-511 -597,-658 -1118,-1389z"/>
    <polygon class="fil14 str5" points="5255,7425 5490,7152 5980,7458 5643,7850 "/>
    <path class="fil4" d="M5886 8094c-80,-79 -161,-160 -243,-244l337 -392c96,76 189,151 281,224l0 412 -375 0z"/>
    <path class="fil1 str4" d="M5886 8094c-80,-79 -161,-160 -243,-244l337 -392c96,76 189,151 281,224"/>
    <polygon class="fil15" points="5612,7817 5949,7430 5908,7413 5589,7782 "/>
    <polygon class="fil15" points="5544,7747 5864,7380 5823,7362 5520,7712 "/>
    <polygon class="fil15" points="5476,7664 5772,7325 5732,7306 5452,7630 "/>
   </g>
  </g>
  <polygon class="fil1" points="3415,5265 6261,5265 6261,8094 3415,8094 "/>
  <path class="fil16" d="M3415 5232l2846 0 34 0 0 33 0 2829 0 33 -34 0 -2846 0 -33 0 0 -33 0 -2829 0 -33 33 0zm2813 66l-2780 0 0 2763 2780 0 0 -2763z"/>
  <polygon class="fil10" points="9268,4555 10714,4555 10714,5828 9268,5828 "/>
  <polygon class="fil10" points="13123,4555 14569,4555 14569,5828 13123,5828 "/>
  <polygon class="fil10" points="9268,7951 9241,8797 9750,8800 9750,9224 10232,9224 10232,9649 10714,9649 10714,10073 13123,10073 13123,9649 13605,9649 13605,9224 14087,9224 14087,8800 14569,8800 14569,7951 13605,7951 13605,8375 13123,8375 13123,8800 12642,8800 12642,9224 11196,9224 11196,8800 10714,8800 10714,8375 10232,8375 10232,7951 "/>
  <polygon class="fil10" points="16015,7526 16497,7526 16497,7951 16015,7951 "/>
  <path class="fil8" d="M16015 7525l482 0 1 0 0 1 0 425 0 1 -1 0 -482 0 -1 0 0 -1 0 -425 0 -1 1 0zm480 3l-479 0 0 422 479 0 0 -422z"/>
  <path class="fil12" d="M17167 8684c-707,32 -732,-383 -915,-893 398,515 994,322 1078,689l194 110 15 7 -1 1 49 28 20 8 -2 3 35 19 30 12 -3 4 27 15 215 211 -230 257 -218 -174 -23 -23 -50 -51 -2 2 -10 -13 -209 -212 0 0z"/>
  <path class="fil17" d="M17150 8726c-627,22 -731,-296 -870,-723 -21,-65 -44,-133 -67,-198l-88 -246 160 207c198,256 450,331 658,392 205,60 371,109 422,295l177 100 13 6 50 21 -5 6 5 3 18 7 51 21 -5 6 16 6 53 21 -10 12 210 207 28 27 -26 30 -230 257 -26 29 -30 -25 -219 -173 -2 -2 -2 -2 -23 -23 0 0 -17 -17 -6 7 -32 -43 -8 -11 -195 -197 0 0 0 0zm-791 -749c129,397 225,692 806,666l19 -1 13 13 202 205 8 7 1 1 0 0 9 10 50 51 0 0 21 21 187 148 177 -198 -183 -180 -22 -12 -30 -17 -32 -18 -42 -24 0 0 -26 -15 -42 -24 0 0 -166 -94 -16 -9 -4 -18c-35,-153 -183,-197 -369,-252 -176,-52 -382,-112 -567,-277l6 17 0 0 0 0z"/>
 </g>
</svg>
